<?xml version="1.0" encoding="UTF-8" standalone="no"?>
<!-- Created with Inkscape (http://www.inkscape.org/) -->

<svg
   width="175mm"
   height="175mm"
   viewBox="0 0 175 175.00001"
   version="1.1"
   id="svg5"
   inkscape:version="1.1.2 (b8e25be833, 2022-02-05)"
   sodipodi:docname="madelink-logo.svg"
   xmlns:inkscape="http://www.inkscape.org/namespaces/inkscape"
   xmlns:sodipodi="http://sodipodi.sourceforge.net/DTD/sodipodi-0.dtd"
   xmlns="http://www.w3.org/2000/svg"
   xmlns:svg="http://www.w3.org/2000/svg">
  <sodipodi:namedview
     id="namedview7"
     pagecolor="#ffffff"
     bordercolor="#eeeeee"
     borderopacity="1"
     inkscape:pageshadow="0"
     inkscape:pageopacity="0"
     inkscape:pagecheckerboard="0"
     inkscape:document-units="mm"
     showgrid="false"
     inkscape:snap-nodes="true"
     inkscape:snap-global="false"
     fit-margin-top="0"
     fit-margin-left="0"
     fit-margin-right="0"
     fit-margin-bottom="0"
     inkscape:zoom="1.793119"
     inkscape:cx="330.70866"
     inkscape:cy="330.70866"
     inkscape:window-width="3440"
     inkscape:window-height="1369"
     inkscape:window-x="-8"
     inkscape:window-y="-8"
     inkscape:window-maximized="1"
     inkscape:current-layer="layer1" />
  <defs
     id="defs2">
    <inkscape:path-effect
       effect="simplify"
       id="path-effect2579"
       is_visible="true"
       lpeversion="1"
       steps="7"
       threshold="0.02"
       smooth_angles="0"
       helper_size="5"
       simplify_individual_paths="false"
       simplify_just_coalesce="false" />
    <inkscape:path-effect
       effect="simplify"
       id="path-effect1315"
       is_visible="true"
       lpeversion="1"
       steps="1"
       threshold="0.02"
       smooth_angles="0"
       helper_size="5"
       simplify_individual_paths="false"
       simplify_just_coalesce="false" />
    <inkscape:path-effect
       effect="simplify"
       id="path-effect1313"
       is_visible="true"
       lpeversion="1"
       steps="4"
       threshold="0.02"
       smooth_angles="0"
       helper_size="5"
       simplify_individual_paths="false"
       simplify_just_coalesce="false" />
    <inkscape:path-effect
       effect="simplify"
       id="path-effect1311"
       is_visible="true"
       lpeversion="1"
       steps="2"
       threshold="0.02"
       smooth_angles="0"
       helper_size="5"
       simplify_individual_paths="false"
       simplify_just_coalesce="false" />
    <inkscape:path-effect
       effect="simplify"
       id="path-effect1309"
       is_visible="true"
       lpeversion="1"
       steps="2"
       threshold="0.02"
       smooth_angles="0"
       helper_size="5"
       simplify_individual_paths="false"
       simplify_just_coalesce="false" />
    <inkscape:path-effect
       effect="simplify"
       id="path-effect1307"
       is_visible="true"
       lpeversion="1"
       steps="2"
       threshold="0.02"
       smooth_angles="0"
       helper_size="5"
       simplify_individual_paths="false"
       simplify_just_coalesce="false" />
    <inkscape:path-effect
       effect="simplify"
       id="path-effect1305"
       is_visible="true"
       lpeversion="1"
       steps="2"
       threshold="0.02"
       smooth_angles="0"
       helper_size="5"
       simplify_individual_paths="false"
       simplify_just_coalesce="false" />
    <inkscape:path-effect
       effect="simplify"
       id="path-effect1303"
       is_visible="true"
       lpeversion="1"
       steps="1"
       threshold="0.02"
       smooth_angles="0"
       helper_size="5"
       simplify_individual_paths="false"
       simplify_just_coalesce="false" />
    <inkscape:path-effect
       effect="simplify"
       id="path-effect1301"
       is_visible="true"
       lpeversion="1"
       steps="1"
       threshold="0.02"
       smooth_angles="0"
       helper_size="5"
       simplify_individual_paths="false"
       simplify_just_coalesce="false" />
    <inkscape:path-effect
       effect="simplify"
       id="path-effect890"
       is_visible="true"
       lpeversion="1"
       steps="2"
       threshold="0.02"
       smooth_angles="0"
       helper_size="5"
       simplify_individual_paths="false"
       simplify_just_coalesce="false" />
    <inkscape:path-effect
       effect="simplify"
       id="path-effect1303-6"
       is_visible="true"
       lpeversion="1"
       steps="1"
       threshold="0.02"
       smooth_angles="0"
       helper_size="5"
       simplify_individual_paths="false"
       simplify_just_coalesce="false" />
    <inkscape:path-effect
       effect="simplify"
       id="path-effect1315-6"
       is_visible="true"
       lpeversion="1"
       steps="1"
       threshold="0.02"
       smooth_angles="0"
       helper_size="5"
       simplify_individual_paths="false"
       simplify_just_coalesce="false" />
    <inkscape:path-effect
       effect="simplify"
       id="path-effect1311-8"
       is_visible="true"
       lpeversion="1"
       steps="2"
       threshold="0.02"
       smooth_angles="0"
       helper_size="5"
       simplify_individual_paths="false"
       simplify_just_coalesce="false" />
    <inkscape:path-effect
       effect="simplify"
       id="path-effect1307-1"
       is_visible="true"
       lpeversion="1"
       steps="2"
       threshold="0.02"
       smooth_angles="0"
       helper_size="5"
       simplify_individual_paths="false"
       simplify_just_coalesce="false" />
    <inkscape:path-effect
       effect="simplify"
       id="path-effect1313-3"
       is_visible="true"
       lpeversion="1"
       steps="4"
       threshold="0.02"
       smooth_angles="0"
       helper_size="5"
       simplify_individual_paths="false"
       simplify_just_coalesce="false" />
    <inkscape:path-effect
       effect="simplify"
       id="path-effect1301-7"
       is_visible="true"
       lpeversion="1"
       steps="1"
       threshold="0.02"
       smooth_angles="0"
       helper_size="5"
       simplify_individual_paths="false"
       simplify_just_coalesce="false" />
    <inkscape:path-effect
       effect="simplify"
       id="path-effect1309-6"
       is_visible="true"
       lpeversion="1"
       steps="2"
       threshold="0.02"
       smooth_angles="0"
       helper_size="5"
       simplify_individual_paths="false"
       simplify_just_coalesce="false" />
    <inkscape:path-effect
       effect="simplify"
       id="path-effect1305-2"
       is_visible="true"
       lpeversion="1"
       steps="2"
       threshold="0.02"
       smooth_angles="0"
       helper_size="5"
       simplify_individual_paths="false"
       simplify_just_coalesce="false" />
    <inkscape:path-effect
       effect="simplify"
       id="path-effect890-3"
       is_visible="true"
       lpeversion="1"
       steps="2"
       threshold="0.02"
       smooth_angles="0"
       helper_size="5"
       simplify_individual_paths="false"
       simplify_just_coalesce="false" />
    <inkscape:path-effect
       effect="simplify"
       id="path-effect890-3-7"
       is_visible="true"
       lpeversion="1"
       steps="2"
       threshold="0.02"
       smooth_angles="0"
       helper_size="5"
       simplify_individual_paths="false"
       simplify_just_coalesce="false" />
    <inkscape:path-effect
       effect="simplify"
       id="path-effect1305-2-8"
       is_visible="true"
       lpeversion="1"
       steps="2"
       threshold="0.02"
       smooth_angles="0"
       helper_size="5"
       simplify_individual_paths="false"
       simplify_just_coalesce="false" />
    <inkscape:path-effect
       effect="simplify"
       id="path-effect1309-6-1"
       is_visible="true"
       lpeversion="1"
       steps="2"
       threshold="0.02"
       smooth_angles="0"
       helper_size="5"
       simplify_individual_paths="false"
       simplify_just_coalesce="false" />
    <inkscape:path-effect
       effect="simplify"
       id="path-effect1301-7-3"
       is_visible="true"
       lpeversion="1"
       steps="1"
       threshold="0.02"
       smooth_angles="0"
       helper_size="5"
       simplify_individual_paths="false"
       simplify_just_coalesce="false" />
    <inkscape:path-effect
       effect="simplify"
       id="path-effect1313-3-9"
       is_visible="true"
       lpeversion="1"
       steps="4"
       threshold="0.02"
       smooth_angles="0"
       helper_size="5"
       simplify_individual_paths="false"
       simplify_just_coalesce="false" />
    <inkscape:path-effect
       effect="simplify"
       id="path-effect1307-1-2"
       is_visible="true"
       lpeversion="1"
       steps="2"
       threshold="0.02"
       smooth_angles="0"
       helper_size="5"
       simplify_individual_paths="false"
       simplify_just_coalesce="false" />
    <inkscape:path-effect
       effect="simplify"
       id="path-effect1311-8-2"
       is_visible="true"
       lpeversion="1"
       steps="2"
       threshold="0.02"
       smooth_angles="0"
       helper_size="5"
       simplify_individual_paths="false"
       simplify_just_coalesce="false" />
    <inkscape:path-effect
       effect="simplify"
       id="path-effect1315-6-4"
       is_visible="true"
       lpeversion="1"
       steps="1"
       threshold="0.02"
       smooth_angles="0"
       helper_size="5"
       simplify_individual_paths="false"
       simplify_just_coalesce="false" />
    <inkscape:path-effect
       effect="simplify"
       id="path-effect1303-6-0"
       is_visible="true"
       lpeversion="1"
       steps="1"
       threshold="0.02"
       smooth_angles="0"
       helper_size="5"
       simplify_individual_paths="false"
       simplify_just_coalesce="false" />
    <inkscape:path-effect
       effect="simplify"
       id="path-effect1315-5"
       is_visible="true"
       lpeversion="1"
       steps="1"
       threshold="0.02"
       smooth_angles="0"
       helper_size="5"
       simplify_individual_paths="false"
       simplify_just_coalesce="false" />
  </defs>
  <g
     inkscape:label="Layer 1"
     inkscape:groupmode="layer"
     id="layer1"
     transform="translate(-5.1479065,-7.7904742)">
    <path
       id="path9320"
       style="opacity:1;fill:#ffffff;fill-opacity:0.75;stroke:#ffffff;stroke-width:0;stroke-linecap:round;stroke-linejoin:round;stroke-miterlimit:4;stroke-dasharray:none;paint-order:fill markers stroke"
       d="m 121.36407,33.95651 c -0.20045,-0.0024 -0.39534,0.0087 -0.58187,0.03462 -0.74618,0.103827 -1.30085,0.389551 -1.65624,0.794782 -0.34623,0.394829 -0.59055,0.963041 -0.53536,2.006078 0.94213,6.23919 5.09485,11.749495 8.95139,17.353463 l 0.003,0.0021 c 0.8218,1.122468 1.62544,2.249635 2.43292,3.357417 0.61572,0.517443 1.25312,1.050398 1.88619,1.614371 2.87613,-0.992471 6.39943,-1.248259 9.00099,0.512114 l 0.60204,0.05478 0.26458,0.08682 c 2.31913,2.47173 4.24482,5.628042 4.21061,9.123474 -0.43482,3.293999 -2.87941,6.364655 -6.17482,7.198526 -0.70173,0.380212 -1.41798,0.586153 -2.13165,0.681612 0.19175,-0.014 0.38384,-0.03646 0.57619,-0.06976 -2.1e-4,0.0021 0,0.0032 0,0.0052 0.21127,0.93794 0.44598,1.87698 0.68834,2.809131 l 0.0139,0.05064 0.01,0.05271 c 0.95258,4.873821 3.08573,9.563105 5.28132,14.236345 0.77975,1.39614 2.35402,2.83867 3.87315,3.4277 1.52191,0.5901 2.71296,0.55811 3.92587,-0.72657 0.58166,-0.64053 0.77223,-1.1638 0.82423,-1.80661 0.0524,-0.64705 -0.0906,-1.44259 -0.38913,-2.34973 -0.55311,-1.68099 -1.60472,-3.63169 -2.11873,-5.80275 -1.82575,-3.047436 -4.65288,-5.736555 -7.11533,-9.017537 l -0.003,-0.0021 -0.003,-0.0041 c -0.52253,-0.70335 -1.06783,-1.396669 -1.6278,-2.082559 1.22164,-0.599371 2.27558,-1.511514 3.07938,-2.612244 3.55267,2.98645 7.33028,5.603494 11.54451,7.350974 3.97881,1.166468 7.37619,3.207864 10.51566,2.285132 l 0.1638,-0.04909 0.16796,-0.01551 c 1.56287,-0.144968 2.45435,-1.233779 2.81842,-2.80448 0.36409,-1.570691 -0.0692,-3.350974 -1.10898,-4.261755 l -0.11369,-0.09974 -0.093,-0.117305 c -1.97961,-2.44915 -5.79607,-3.78206 -9.37514,-4.81211 -3.97031,-0.68998 -7.71916,-1.746395 -11.20293,-1.738394 -0.56407,0.100481 -1.12266,0.172992 -1.67638,0.224793 2.2e-4,-0.0021 2.4e-4,-0.0042 0,-0.0062 0.0127,-1.303311 -0.2472,-2.559119 -0.69815,-3.750159 0.61804,-0.136589 1.24418,-0.275127 1.88103,-0.407726 h 0.006 l 0.006,-0.0015 c 5.26296,-1.058072 10.35029,-1.161241 14.62082,-3.24063 l 0.22635,-0.109038 0.24805,-0.04289 c 1.82925,-0.308089 3.56267,-1.393944 4.43383,-2.675806 0.8712,-1.28185 1.09414,-2.575795 -0.004,-4.320667 l -0.076,-0.120922 -0.0568,-0.132808 c -0.42384,-1.00915 -0.79997,-1.260094 -1.30845,-1.425752 -0.50845,-0.16569 -1.32403,-0.149662 -2.33992,0.09922 -1.99554,0.488889 -4.42725,1.805519 -6.75979,2.360578 -4.46929,1.606531 -8.26709,4.55255 -11.93622,7.851201 -0.69416,-1.15977 -1.54099,-2.236105 -2.451,-3.206007 l -0.0791,-0.02532 c 1.49884,-1.31179 2.93163,-2.677837 4.24161,-4.140316 l 0.0294,-0.03101 0.0294,-0.02997 c 3.13431,-3.173159 5.745,-7.079689 7.09364,-11.18743 -0.0523,-1.9137 -0.0881,-4.15983 -0.53899,-5.986198 -0.44775,-1.81361 -1.15842,-2.921394 -2.45308,-3.455085 -4.21394,0.203761 -8.23315,3.565001 -10.0919,7.515301 -1.50733,3.55749 -1.52926,7.462343 -1.37512,11.650454 0.0222,0.60086 0.0389,1.208156 0.0507,1.819526 0.0609,0.26525 0.12092,0.53 0.17981,0.79375 l 0.0295,0.129191 0.01,0.130741 c 0.0378,0.544489 0.0956,1.148961 0.15296,1.790073 -1.20341,-0.381781 -2.50201,-0.474766 -3.79047,-0.363286 -0.009,-0.63123 -0.0251,-1.268312 -0.0465,-1.911512 -1.77496,-7.641809 -4.41402,-15.353387 -10.02469,-20.415808 l -0.11885,-0.10542 -0.0961,-0.125056 c -0.85149,-1.105974 -2.51857,-1.797304 -3.92174,-1.813843 z m -13.89681,15.378388 c -0.23921,0.0025 -0.47948,0.01419 -0.71779,0.03514 -0.95327,0.08382 -1.87942,0.315166 -2.61329,0.685744 -1.45405,0.734261 -2.20512,1.626989 -1.9513,3.603398 0.81327,3.821231 3.98229,7.12711 7.74631,8.586041 5.88095,1.735291 11.90051,3.091751 17.87797,3.283519 0.1252,-1.24668 0.49223,-2.454654 1.08522,-3.536217 -0.51893,-0.684792 -1.02277,-1.374603 -1.51673,-2.062925 -0.57192,-0.505658 -1.1495,-1.023749 -1.71823,-1.565277 -5.2887,-3.591251 -10.31883,-7.554262 -16.07034,-8.787062 l -0.031,-0.0057 -0.0315,-0.0083 c -0.63198,-0.160256 -1.3417,-0.235918 -2.0593,-0.228412 z m -58.340633,5.374349 c -1.396249,0.0039 -2.57202,0.564007 -3.127976,1.332735 -0.60435,5.42299 -0.38073,10.964129 0.90382,16.234151 0.735221,2.334201 1.674037,4.63718 2.693376,6.936528 -0.152943,0.03616 -0.305276,0.07508 -0.457335,0.115239 2.13664,-0.520049 4.351925,-0.66807 6.465755,0.06925 3.098739,1.4839 5.240343,4.934529 4.908743,8.421703 0.583502,3.46941 -1.929596,6.09177 -4.938715,7.27449 -1.564172,1.0297 -3.433625,1.43261 -5.289084,1.32602 -0.04483,0.12457 -0.08996,0.24899 -0.135909,0.3731 -0.229489,1.30864 -0.413446,2.6438 -0.578776,3.989937 -0.179051,5.43706 -2.417106,10.00725 -1.623158,14.2167 l 0.0057,0.0388 0.0062,0.0393 c 0.22706,1.59693 1.190694,3.50794 2.464964,4.70308 1.19511,1.12085 2.467938,1.56276 3.925859,1.20096 0.928999,-0.7677 1.343781,-1.76555 1.523423,-3.24993 0.195061,-1.61224 0.05204,-3.57619 0.208772,-5.51181 l 0.0057,-0.0543 0.0083,-0.0548 c 0.773401,-5.35916 -1.045972,-10.51327 -2.99413,-15.912717 0.998929,-0.20933 1.958781,-0.59015 2.824633,-1.16014 0.148299,-0.0583 0.294185,-0.1229 0.439767,-0.1881 0.01299,0.0347 0.02577,0.0693 0.03876,0.10387 1.161349,2.53535 2.296051,5.138147 3.12384,7.967467 l 5.16e-4,0.002 c 1.409991,4.37163 4.880819,8.20673 9.252148,9.32088 0.008,0.33129 0.06552,1.43906 0.511598,2.84892 0.101256,0.32002 0.197708,0.57095 0.29404,0.8263 0.09743,0.0302 0.391186,0.11983 0.647504,0.16899 0.133178,0.0255 0.323551,0.0429 0.491442,0.0563 -0.260749,-0.57989 -0.488219,-1.177 -0.677476,-1.78955 l -0.01757,-0.061 -0.01602,-0.0625 c -0.113126,-0.49056 -0.169725,-0.97004 -0.185518,-1.43815 -0.0061,-0.0581 -0.02249,-0.14779 -0.02687,-0.19896 0.0075,0.003 0.0167,0.005 0.02429,0.007 -0.01897,-2.71769 1.507252,-4.98631 3.547587,-6.19032 0.025,-0.0148 0.05025,-0.0294 0.07545,-0.0439 0.147648,0.25765 0.329597,0.59938 0.533816,1.03612 0.48193,1.03078 0.451135,2.35334 0.451135,2.35334 a 0.5,0.5 0 0 0 0.02274,0.14263 c -0.925547,0.74274 -1.353627,1.70087 -1.071253,3.25458 0.02297,0.11206 0.05332,0.24218 0.09147,0.38602 0.280398,0.84645 0.655942,1.66045 1.116211,2.42724 0.01971,0.032 0.04141,0.0692 0.06046,0.0997 1.497031,2.44252 3.836077,4.39842 6.55412,5.4007 5.898327,1.67944 11.931396,2.98248 17.911054,3.11868 0.113172,-1.24809 0.468376,-2.46019 1.05109,-3.54759 -0.578508,-0.74874 -1.138673,-1.50381 -1.687744,-2.25619 -0.262239,-0.23463 -0.524481,-0.47123 -0.786,-0.71159 -5.480111,-3.84178 -10.850385,-7.94764 -16.947285,-9.25783 l -0.05374,-0.0119 -0.05478,-0.0155 c -0.257799,-0.0732 -0.527203,-0.1292 -0.804084,-0.1695 -0.06943,-0.47511 -0.231288,-1.39953 -0.586528,-2.51199 -0.09751,-0.30538 -0.200586,-0.56149 -0.302305,-0.81752 -0.255509,-0.0117 -0.563579,-0.0231 -0.738974,-0.0114 -0.09468,0.006 -0.212891,0.0281 -0.326596,0.0465 0.05715,0.13039 0.11381,0.26176 0.172601,0.41186 0.516435,1.31197 0.862938,2.73575 0.888317,4.30155 0.363159,1.59304 0.193429,3.10764 -0.560689,4.25865 -0.61749,0.94249 -1.521558,1.53828 -2.477368,1.89394 -0.179091,-0.25948 -0.435856,-0.65788 -0.797885,-1.29604 -0.46413,-0.81816 -0.651706,-1.48111 -0.736907,-1.88516 0.610452,-0.15845 0.930103,-0.3953 1.084172,-0.63045 0.16064,-0.2452 0.312579,-0.65665 0.04703,-1.68775 l -0.05685,-0.21653 v -0.22479 c 0.0077,-2.78242 -1.426366,-5.1371 -3.200837,-7.50962 -2.613792,-3.347527 -6.933628,-5.323417 -10.621057,-8.816507 -0.66267,-0.49329 -1.37781,-0.92905 -2.130621,-1.32861 -0.0074,-10e-4 -0.01521,-0.002 -0.02222,-0.003 0.807689,-0.94527 1.350201,-2.07501 1.457791,-3.35587 2.963222,0.31347 6.023295,0.41264 9.073867,0.47594 4.815829,-0.65816 9.346705,-0.12709 12.365135,-2.56625 l 0.07441,-0.0584 0.0801,-0.0527 c 2.194021,-1.40805 2.113571,-4.797698 -0.08785,-6.117456 -1.5514,-0.183481 -3.148698,-0.296984 -4.740278,-0.267684 -1.728002,0.03177 -3.439276,0.200377 -5.039487,0.529167 l -0.02325,0.0057 -0.02325,0.0041 c -3.064029,0.54178 -6.248929,2.702931 -10.223148,3.623551 -0.553691,0.23024 -1.102781,0.457112 -1.649511,0.682132 -0.262792,-1.301702 -0.841044,-2.533408 -1.652614,-3.587897 5.229561,-3.079282 9.93435,-7.444378 13.222449,-12.246798 l 0.07235,-0.107487 0.08992,-0.0956 c 1.97844,-2.130269 2.981841,-4.926417 2.513542,-7.669816 -0.96442,-1.713769 -3.00163,-2.610011 -4.958872,-2.416389 -0.657098,0.065 -1.297368,0.260244 -1.883087,0.572574 -3.412151,2.227369 -6.166225,5.572033 -8.144205,9.254731 -1.380911,3.12543 -3.280781,5.52105 -3.9672,8.006231 -0.09104,0.701159 -0.220017,1.381522 -0.379306,2.043803 -1.24251,-0.383741 -2.518122,-0.487641 -3.789432,-0.392742 0.350078,-3.326959 0.761828,-6.693382 1.54771,-10.064502 0.456758,-4.136868 0.423997,-8.407378 -0.593762,-12.267467 -0.46423,-0.966951 -1.809028,-1.724141 -3.403929,-1.804543 -0.09492,-0.0048 -0.189073,-0.007 -0.282151,-0.0067 z M 28.051943,63.23224 c -1.503693,-0.01753 -2.579783,0.350004 -3.37757,1.278478 -1.125511,4.06695 0.808307,8.938061 3.980119,11.939322 2.907659,2.54467 6.610585,3.78423 10.637075,4.9475 0.529061,0.152852 1.061982,0.31198 1.596803,0.47594 0.936667,0.203814 2.023287,0.390332 3.166213,0.622702 0.344416,-0.427733 0.718587,-0.831651 1.161687,-1.174088 0.106421,-0.27554 0.256919,-0.633355 0.498161,-0.85938 -0.800688,-1.904831 -1.675403,-3.762925 -2.690792,-5.528345 l -0.01964,-0.03721 -0.01912,-0.03876 c -2.03377,-3.96952 -4.928002,-7.670766 -8.40827,-10.236584 -1.83379,-0.54865 -3.978079,-1.21635 -5.85339,-1.35909 -0.232691,-0.01771 -0.456465,-0.02799 -0.671277,-0.03049 z m 99.683327,5.922637 c -4.82143,0.89257 -9.65417,1.696937 -14.52264,2.365748 h -0.003 -0.003 c -2.11849,0.28565 -4.38793,1.456122 -5.88285,3.074231 -1.45029,1.569778 -2.13995,3.428003 -1.74408,5.499923 0.37153,0.65487 0.73382,0.937048 1.25987,1.095539 0.59269,0.17853 1.48518,0.172836 2.5523,-0.03307 2.10468,-0.406141 4.63378,-1.545788 7.05281,-1.910477 4.753,-1.207074 8.68283,-4.270377 12.78372,-7.499284 -0.50282,-0.793728 -0.87578,-1.666539 -1.11983,-2.582272 -0.1247,-0.0033 -0.24947,-0.0057 -0.37414,-0.01033 z m 3.89432,5.269963 c -1.09583,0.998654 -2.23298,2.003621 -3.4685,2.974496 v 0.0021 l -0.003,0.0021 c -3.51313,2.748399 -7.06323,5.198282 -8.35557,8.860967 l -0.0103,0.0295 -0.0119,0.0294 c -1.3499,3.43617 -1.15943,7.78791 0.24598,11.20087 0.81825,0.55942 1.67241,0.53198 2.96106,-0.0465 0.003,-0.001 0.005,-0.003 0.008,-0.004 0.11528,0.36108 0.23463,0.84402 0.29094,1.43867 0.0765,0.80771 0.12417,1.556167 0.15605,2.129067 -1.93016,0.60115 -4.21812,0.56379 -5.99961,-0.99581 l -0.28321,-0.248037 -0.15658,-0.3421 c -1.00812,-2.20769 -1.57991,-4.67926 -1.66862,-7.17889 -0.1637,0.0761 -0.35238,0.16694 -0.478,0.24133 -0.1043,0.0618 -0.26614,0.17707 -0.41548,0.2837 0.0384,0.34687 0.0789,0.70423 0.15193,1.17926 0.19629,1.27682 0.31834,2.05498 0.39944,2.56987 -1.51514,1.31807 -2.76939,2.9846 -3.58685,4.766107 -1.4741,3.57141 -1.45703,7.4738 -1.26349,11.66027 0.0279,0.60347 0.0503,1.2135 0.0677,1.8278 0.0629,0.26258 0.12513,0.52435 0.18603,0.78548 l 0.0294,0.12713 0.0114,0.13281 c 0.0429,0.54443 0.10673,1.14886 0.17052,1.79007 -1.20639,-0.37001 -2.50531,-0.45056 -3.79201,-0.32711 -0.0151,-0.63427 -0.0387,-1.27413 -0.0667,-1.9203 -1.84671,-7.62284 -4.56123,-15.30648 -10.217974,-20.314517 l -0.117305,-0.10336 -0.09767,-0.12505 c -0.98499,-1.25477 -3.030841,-1.96008 -4.52117,-1.7384 -0.745162,0.11084 -1.29693,0.40226 -1.648479,0.8108 -0.34281,0.39842 -0.583398,0.96966 -0.517797,2.01383 1.000627,6.225777 5.202732,11.693677 9.109522,17.257347 l 0.0077,0.0119 c 0.808159,1.08242 1.599673,2.16893 2.393663,3.23805 0.63675,0.54872 1.30249,1.10959 1.96834,1.6955 2.86769,-1.02103 6.39141,-1.31199 9.01134,0.42478 l 0.60359,0.0496 0.26562,0.0842 c 2.34175,2.45007 4.29734,5.58746 4.29532,9.08316 -0.40446,3.29784 -2.81897,6.39162 -6.10658,7.25641 -0.70302,0.38951 -1.42272,0.60386 -2.14045,0.70486 0.19108,-0.0152 0.38261,-0.0385 0.57412,-0.0729 0.66389,3.01576 1.58737,6.05717 2.54405,9.07748 1.9077,3.74699 2.74079,7.50274 5.10717,9.82059 l 0.0667,0.0667 0.0584,0.0724 c 0.90971,1.10447 2.54897,1.75978 3.96719,1.67949 1.39469,-0.079 2.4222,-0.64758 2.93314,-2.12287 0.26234,-1.18536 -0.0282,-2.45109 -0.63458,-3.98271 -0.56104,-1.41721 -1.31894,-3.02467 -1.79316,-4.79454 -1.85354,-3.04779 -4.72524,-5.71727 -7.23005,-8.99014 l -0.005,-0.004 -0.003,-0.004 c -0.52806,-0.697 -1.07868,-1.38341 -1.64381,-2.06241 1.17764,-0.59189 2.19261,-1.47794 2.97604,-2.54041 0.30943,0.24216 0.62156,0.47924 0.93742,0.71003 l 0.0408,0.0315 0.0413,0.0331 c 4.35665,3.59868 9.68049,6.31809 14.90813,7.80469 l 0.12094,0.0351 0.11523,0.0512 c 2.65298,1.18802 5.6256,1.24088 8.07238,-0.0842 1.75443,-1.95512 1.47188,-5.26458 -0.4532,-7.07244 -3.2144,-2.52136 -7.27813,-4.05506 -11.41222,-4.74131 -3.39585,-0.30597 -6.26925,-1.32817 -8.83875,-1.17564 -0.62474,0.12458 -1.24301,0.21322 -1.85571,0.27492 0,-0.009 0.004,-0.0174 0.005,-0.0264 0,-1.31507 -0.27649,-2.57933 -0.74621,-3.77548 2.47452,-0.59359 5.08342,-1.24414 7.89099,-1.3932 4.53109,-0.5819 9.02295,-2.2071 12.98318,-4.52788 1.00669,-0.69952 1.35975,-2.17686 0.97049,-3.80494 -0.36602,-1.53082 -1.38059,-2.69269 -2.39675,-3.03134 -5.33112,1.11663 -10.51129,3.15117 -15.11123,6.06061 -1.87719,1.37616 -3.66871,2.91671 -5.43068,4.53048 -0.70022,-1.1372 -1.54736,-2.19164 -2.45514,-3.14141 l -0.0827,-0.0264 c 1.48704,-1.32633 2.90788,-2.70591 4.20492,-4.18114 l 0.0274,-0.0331 0.0289,-0.0295 c 3.10372,-3.20168 5.67981,-7.13059 6.99027,-11.24996 -0.0703,-1.91383 -0.12695,-4.158907 -0.59532,-5.982057 -0.46453,-1.80829 -1.18443,-2.91191 -2.48253,-3.4339 -0.47924,0.0275 -0.95623,0.0956 -1.42679,0.20102 -0.0762,-0.40957 -0.1624,-1.03225 -0.17259,-1.86862 -0.01,-0.81553 0.0188,-1.36816 0.0491,-1.73994 0.60214,-0.0979 1.21698,-0.15378 1.8433,-0.16279 l 0.28268,-0.004 0.26974,0.0863 c 2.31074,0.73268 3.70552,2.53833 4.50877,4.5067 0.003,-0.002 0.004,-0.004 0.006,-0.006 0.008,0.0244 0.0201,0.0675 0.0284,0.0935 0.19172,0.48166 0.35867,0.96965 0.48368,1.45624 0.17137,0.66722 0.29644,1.34315 0.39222,2.0128 0.14137,-0.12258 0.29575,-0.25612 0.37621,-0.32608 0.23897,-0.20778 0.38024,-0.34559 0.46922,-0.43769 -0.0709,-0.36085 -0.14235,-0.7266 -0.25684,-1.17823 -0.41452,-1.63542 -0.71794,-2.45315 -0.72294,-2.46755 1.398,-1.67393 2.6634,-3.84515 3.4468,-6.04046 0.94946,-3.599997 2.42885,-6.682025 3.24684,-9.860896 l 0.0196,-0.07648 0.0269,-0.07596 c 0.12457,-0.348091 0.22738,-0.707776 0.31419,-1.076939 -0.0262,-0.117996 -0.0518,-0.236296 -0.0775,-0.354499 -1.07762,-0.413785 -2.06944,-1.089774 -2.90835,-1.961637 z M 33.698111,85.0614 c -5.177985,0.0185 -10.260409,0.659813 -14.701429,2.857703 l -0.115237,0.0563 -0.123508,0.0393 c -1.694449,0.54684 -3.457101,2.24558 -4.029212,3.77704 -0.28606,0.76573 -0.304673,1.4218 -0.103352,1.973 0.185291,0.5073 0.621377,1.02707 1.535306,1.52911 6.138891,1.13598 12.679063,-1.05194 19.220532,-2.86546 1.390189,-0.45257 2.778871,-0.88533 4.1491,-1.3286 0.775229,-0.42685 1.567741,-0.89631 2.385901,-1.36426 -0.01957,-1.24184 0.116555,-2.5392 0.44907,-3.78323 -0.704041,-0.22047 -1.41917,-0.43329 -2.143541,-0.64337 -0.02338,-0.005 -0.04739,-0.01 -0.07079,-0.015 -1.796981,-0.11724 -3.610557,-0.207408 -5.416209,-0.228408 -0.345887,-0.004 -0.69143,-0.0054 -1.036627,-0.0041 z m 10.025227,8.376233 c -0.957665,0.33286 -1.916234,0.64326 -2.869076,0.9431 -5.350189,3.56492 -10.55897,7.428687 -14.30507,12.364097 l -0.0098,0.014 -0.01188,0.0134 c -1.22065,1.54459 -2.080956,4.03797 -1.956986,5.94175 0.06198,0.95189 0.334331,1.72882 0.796851,2.30632 0.447181,0.55836 1.106797,0.99266 2.234489,1.23042 3.879699,0.26021 7.90749,-1.6417 10.42572,-4.73046 3.486322,-5.04314 6.659822,-10.33596 8.711094,-15.953037 -1.142851,-0.50737 -2.174017,-1.23098 -3.015318,-2.12958 z m 55.354759,34.772037 c -4.81293,0.93809 -9.637728,1.78733 -14.499889,2.50165 h -0.0021 -0.0021 c -2.11577,0.30531 -4.376016,1.49683 -5.855457,3.12901 -1.435272,1.58344 -2.106739,3.44732 -1.691367,5.51543 0.377819,0.65186 0.744066,0.93264 1.271756,1.08623 0.594339,0.17298 1.487694,0.15704 2.552814,-0.0589 2.101472,-0.42604 4.618982,-1.58916 7.035231,-1.9761 4.67918,-1.23598 8.53916,-4.27166 12.552215,-7.49205 0.0494,-0.0474 0.0989,-0.0948 0.1483,-0.14211 -0.50506,-0.7848 -0.882289,-1.64869 -1.133262,-2.55592 -0.125386,-0.002 -0.250852,-0.004 -0.376206,-0.007 z m 3.905183,5.18986 c -0.17198,0.14113 -0.34374,0.28214 -0.51675,0.42375 -0.0509,0.0485 -0.10227,0.0958 -0.15296,0.14469 l -0.003,0.003 c -2.990759,3.14894 -6.603991,5.12933 -8.927613,7.86515 l -0.0021,0.004 -0.0036,0.002 c -2.943161,3.43624 -3.547237,8.32161 -2.472716,12.84934 l 0.04496,0.19379 0.0021,0.19689 c 0.0086,1.02646 0.251487,1.38262 0.458888,1.57458 0.207391,0.19195 0.565582,0.33569 1.197343,0.32969 1.263528,-0.0126 3.280296,-0.87307 4.287075,-1.73994 l 0.0057,-0.006 0.0041,-0.004 c 2.381541,-2.019 3.943533,-4.46033 5.345933,-7.56388 1.04756,-3.04326 1.76678,-6.25087 3.20651,-9.49451 0.25921,-0.79645 0.44418,-1.62529 0.58187,-2.4784 -0.0215,-0.10414 -0.0424,-0.20841 -0.0635,-0.31264 -1.10866,-0.40912 -2.12997,-1.09645 -2.99207,-1.98748 z" />
    <g
       id="g9753">
      <path
         id="path1165"
         style="color:#000000;fill:#000000;stroke-width:3.77953;-inkscape-stroke:none"
         d="M 166.08008 164.12109 C 156.77654 164.12445 146.99254 167.696 142.08789 176.54688 L 141.46094 177.67578 L 141.30664 178.96094 C 139.42919 194.46981 139.28446 210.29537 141.14844 225.91016 C 134.59684 217.39981 126.95087 209.67451 118.23047 203.40234 L 117.32227 202.75391 L 116.25977 202.43555 C 109.32981 200.3694 99.848341 197.22957 90.083984 196.48633 C 80.319628 195.74308 69.157708 197.82565 62.320312 207.11523 L 61.685547 207.98633 L 61.353516 209.00586 C 54.230297 231.0244 64.277373 254.60605 79.84375 269.25586 L 79.925781 269.33008 L 80.013672 269.41211 C 84.506264 273.35761 89.296755 276.55437 94.257812 279.23438 C 78.219715 280.29848 62.185587 283.47182 47.1875 290.74609 C 36.515921 294.25559 27.624378 302.62088 23.792969 312.87695 C 21.865814 318.03565 21.328031 323.92234 23.365234 329.5 C 25.402441 335.07766 29.986792 339.89089 36.460938 343.08984 L 37.244141 343.48047 L 38.091797 343.65039 C 58.49634 347.72435 78.405911 343.66049 97.134766 338.53516 C 87.377322 346.65493 78.226926 355.64021 70.388672 365.95117 C 63.64118 374.50175 59.448531 386.09442 60.1875 397.44336 C 60.557365 403.12342 62.293979 408.84927 66.070312 413.56445 C 69.846646 418.27964 75.614323 421.69502 82.701172 423.05859 L 83.070312 423.13281 L 83.447266 423.16211 C 103.1422 424.67679 122.37584 415.41219 134.61719 400.30859 L 134.78125 400.10938 L 134.91992 399.90234 C 140.15239 392.3424 145.32254 384.565 150.18945 376.54102 C 148.18498 386.18951 146.6855 396.46793 148.73242 407.50391 C 150.09351 416.8444 154.80708 426.14355 162.04883 432.93555 C 169.32585 439.76066 180.04241 443.94421 191.04492 440.39062 L 191.99805 440.08008 L 192.80859 439.51172 C 200.87071 433.85505 203.8692 425.03858 204.82617 417.13086 C 205.77391 409.29939 205.21469 401.68554 205.65625 395.95117 C 206.04143 393.22765 206.28557 390.53786 206.40625 387.87695 C 214.49341 397.36179 225.19013 404.61531 237.80273 407.68164 C 239.73547 408.51608 241.79524 409.2535 243.94141 409.85547 C 243.4588 408.6456 242.94114 407.22998 242.41602 405.57031 C 240.73006 400.24171 240.51252 396.05482 240.48242 394.80273 C 223.96086 390.59174 210.84277 376.09691 205.51367 359.57422 L 205.51172 359.56641 C 202.38305 348.87291 198.09443 339.03555 193.70508 329.45312 C 193.65601 329.32217 193.60766 329.19142 193.55859 329.06055 C 193.00836 329.30702 192.45701 329.55117 191.89648 329.77148 C 188.624 331.92578 184.99618 333.3651 181.2207 334.15625 C 188.58383 354.56365 195.4602 374.04373 192.53711 394.29883 L 192.50781 394.50586 L 192.48438 394.71094 C 191.89202 402.02667 192.43276 409.44943 191.69531 415.54297 C 191.01638 421.15322 189.44868 424.92459 185.9375 427.82617 C 180.42727 429.19357 175.61656 427.52347 171.09961 423.28711 C 166.28349 418.77008 162.64137 411.54732 161.7832 405.51172 L 161.76172 405.36328 L 161.73828 405.2168 C 158.7375 389.30706 167.19631 372.03391 167.87305 351.48438 C 168.49792 346.39662 169.19319 341.35035 170.06055 336.4043 C 170.26678 335.84697 170.46916 335.28823 170.66992 334.72852 C 166.08678 334.31386 161.56337 333.06302 157.42773 331.07031 C 149.6844 352.56202 137.56823 372.79721 124.24609 392.06836 C 114.72837 403.74241 99.505207 410.93077 84.841797 409.94727 C 80.579631 409.04865 78.086629 407.40721 76.396484 405.29688 C 74.6484 403.1142 73.619025 400.17777 73.384766 396.58008 C 72.916248 389.38469 76.167766 379.96087 80.78125 374.12305 L 80.826172 374.07227 L 80.863281 374.01953 C 95.0218 355.36602 114.70853 340.76284 134.92969 327.28906 C 138.89712 326.0406 142.89045 324.7482 146.87695 323.3418 C 143.91889 320.12572 141.62609 316.31164 140.31836 311.97461 C 140.26098 310.99625 140.2387 310.0001 140.23242 308.99609 C 136.67677 311.00509 133.26298 313.05123 129.92578 314.88867 C 124.74696 316.56403 119.49842 318.19966 114.24414 319.91016 C 89.520505 326.76441 64.801694 335.03372 41.599609 330.74023 C 38.145374 328.84276 36.497191 326.87833 35.796875 324.96094 C 35.035984 322.8777 35.106336 320.39801 36.1875 317.50391 C 38.349828 311.7157 45.011799 305.29527 51.416016 303.22852 L 51.882812 303.08008 L 52.318359 302.86719 C 70.22234 294.0064 90.884124 291.83841 111.80078 292.08203 C 118.62529 292.16151 125.47973 292.50217 132.27148 292.94531 C 132.35989 292.96461 132.45047 292.98279 132.53906 293.00195 C 135.66324 293.90802 138.74589 294.8234 141.76758 295.78516 C 142.9861 290.97188 144.98338 286.39198 147.94922 282.55664 C 143.28675 281.58619 138.85301 280.8432 135.05859 280.01758 C 133.0372 279.39787 131.02304 278.79644 129.02344 278.21875 C 113.8052 273.82214 99.809912 269.13717 88.820312 259.51953 C 76.832358 248.1762 69.523459 229.76569 73.777344 214.39453 C 77.223377 210.38407 82.044363 209.14219 89.080078 209.67773 C 96.167868 210.21724 104.27224 212.7408 111.20312 214.81445 C 124.35687 224.51204 135.29575 238.50103 142.98242 253.50391 L 143.05469 253.65039 L 143.12891 253.79102 C 147.13137 260.74993 150.56024 268.08688 153.69141 275.61133 C 154.30027 274.54308 155.15135 273.64343 156.46094 273.66602 C 160.16707 272.18592 164.03231 270.89162 167.96875 269.96094 C 164.1161 261.27047 160.56787 252.56632 157.78906 243.74414 C 152.93405 223.82589 152.08891 202.88306 154.37305 182.38672 C 156.61439 179.28756 161.52147 177.08548 167.26172 177.375 C 173.28969 177.67903 178.37236 180.54073 180.12695 184.19531 C 183.97359 198.78464 184.0974 214.92517 182.37109 230.56055 C 179.40084 243.3018 177.8446 256.02529 176.52148 268.59961 C 181.32641 268.24106 186.14767 268.63355 190.84375 270.08398 C 191.4458 267.58089 191.93323 265.00947 192.27734 262.35938 C 194.87168 252.9666 202.05227 243.91224 207.27148 232.09961 C 214.74732 218.18074 225.15643 205.5395 238.05273 197.12109 C 240.26648 195.94063 242.68641 195.20271 245.16992 194.95703 C 252.56738 194.22525 260.26706 197.61261 263.91211 204.08984 C 265.68208 214.45861 261.8897 225.02671 254.41211 233.07812 L 254.07227 233.43945 L 253.79883 233.8457 C 241.37135 251.99657 223.58948 268.49461 203.82422 280.13281 C 206.89157 284.11828 209.07711 288.77354 210.07031 293.69336 C 212.13676 292.84286 214.21202 291.98542 216.30469 291.11523 C 231.32536 287.63571 243.36277 279.46757 254.94336 277.41992 L 255.03125 277.40625 L 255.11914 277.38281 C 261.16719 276.14014 267.63501 275.5029 274.16602 275.38281 C 280.18145 275.27222 286.21844 275.70092 292.08203 276.39453 C 300.40235 281.38258 300.70621 294.19386 292.41406 299.51562 L 292.11133 299.71484 L 291.83008 299.93555 C 280.42184 309.15445 263.29726 307.14725 245.0957 309.63477 C 233.56597 309.39565 222.00033 309.02073 210.80078 307.83594 C 210.39415 312.677 208.34371 316.94685 205.29102 320.51953 C 205.31897 320.52302 205.34705 320.52582 205.375 320.5293 C 208.22027 322.03943 210.92315 323.68642 213.42773 325.55078 C 227.36446 338.75306 243.69141 346.22097 253.57031 358.87305 C 260.277 367.84005 265.69709 376.73963 265.66797 387.25586 L 265.66797 388.10547 L 265.88281 388.92383 C 266.8865 392.8209 266.31229 394.37596 265.70508 395.30273 C 265.12277 396.19149 263.91465 397.08668 261.60742 397.68555 C 261.92955 399.21266 262.63837 401.71829 264.39258 404.81055 C 265.76086 407.22249 266.73133 408.72827 267.4082 409.70898 C 271.02074 408.36476 274.43763 406.11295 276.77148 402.55078 C 279.62169 398.20051 280.26318 392.47602 278.89062 386.45508 C 278.65301 371.78798 271.15658 360.27602 264.12695 350.88477 L 264.08984 350.83398 L 264.04492 350.78906 C 254.14795 338.07888 241.18313 330.58805 230.36133 322.45117 C 235.29787 322.64926 240.20882 322.77115 245.06641 322.87109 L 245.61133 322.87891 L 246.15039 322.80469 C 261.78277 320.54255 282.94795 323.85011 299.87695 310.37305 C 316.47786 299.33425 315.46618 273.18922 297.4707 264.0293 L 296.45117 263.51367 L 295.32227 263.36523 C 288.38337 262.46481 281.15758 262.01612 273.92188 262.14844 C 266.71843 262.28015 259.50967 263.00052 252.55859 264.42188 C 249.21509 265.01831 246.02153 265.88138 242.94922 266.89258 C 251.01368 259.13156 258.25883 250.66386 264.41211 241.74219 C 274.40364 230.79889 279.97241 215.69067 276.80078 200.38281 L 276.62305 199.54102 L 276.24023 198.77344 C 270.05941 186.38635 256.72853 180.36077 243.88477 181.72266 C 239.60351 182.17662 235.38162 183.44741 231.49023 185.58203 L 231.27734 185.70117 L 231.07812 185.83398 C 216.05541 195.55879 204.50407 209.63268 196.19336 224.78125 C 197.30551 210.05149 196.79223 194.70342 192.79492 180.03125 L 192.66992 179.57422 L 192.48438 179.13867 C 188.16919 169.18679 177.76181 164.66377 167.93164 164.16797 C 167.31726 164.13698 166.70031 164.12087 166.08008 164.12109 z M 244.3418 396.12891 C 244.49593 397.93344 244.90512 400.9098 246.01758 404.42578 C 246.96935 407.43395 247.85066 409.54131 248.48828 410.89453 C 253.41485 411.76896 258.60937 411.8678 263.61914 410.79688 C 262.92227 409.73441 262.12357 408.46115 261.10742 406.66992 C 259.07405 403.08557 258.24669 400.0216 257.875 398.19141 C 253.6096 398.36715 248.29629 397.51928 244.3418 396.12891 z "
         transform="matrix(0.26458333,0,0,0.26458333,5.1479065,7.7904742)" />
      <path
         style="color:#000000;fill:#ffcc00;fill-opacity:0.75;stroke-width:3.5;-inkscape-stroke:none"
         d="m 45.210057,81.32734 c -2.669164,2.062794 -3.475767,5.86861 -3.288457,9.062589 1.628706,5.401518 8.991738,7.772703 13.646473,4.708474 3.009113,-1.182722 5.522,-3.804629 4.938497,-7.274035 0.331604,-3.487182 -1.80978,-6.938253 -4.908523,-8.422159 -3.106274,-1.083488 -6.44533,-0.330604 -9.40542,0.851547 -0.574126,-0.0099 -0.818215,0.648056 -0.98257,1.073584 z"
         id="path1141" />
      <path
         style="color:#000000;fill:#000000;-inkscape-stroke:none"
         d="m 53.388672,77.164062 c -2.775262,-0.229184 -5.488174,0.523334 -7.845703,1.464844 l 0.679687,-0.125 c -0.959604,-0.01662 -1.763918,0.631944 -2.103515,1.111328 -0.240784,0.339896 -0.298212,0.549868 -0.382813,0.767578 -2.960391,2.629101 -3.761506,6.715957 -3.5625,10.109375 l 0.01367,0.205079 0.05859,0.197265 c 1.990465,6.601273 10.413278,9.353259 16.121093,5.746094 1.696824,-0.695354 3.281102,-1.762289 4.416016,-3.269531 1.146272,-1.522327 1.763552,-3.542845 1.443359,-5.699219 0.254857,-4.180403 -2.199488,-8.088487 -5.873046,-9.847656 l -0.08789,-0.04297 -0.0918,-0.03125 C 55.245686,77.42626 54.313751,77.240456 53.388664,77.164061 Z m -2.353516,3.560547 c 1.35692,-0.172847 2.675961,-0.08818 3.904297,0.324219 2.373233,1.194104 4.07459,3.976446 3.824219,6.609375 l -0.02148,0.230469 0.03906,0.226562 c 0.211645,1.258403 -0.104011,2.232814 -0.794922,3.150391 -0.690911,0.917577 -1.80943,1.712145 -3.058594,2.203125 l -0.169922,0.06836 -0.152343,0.09961 c -3.549,2.33632 -9.54046,0.421203 -10.908203,-3.59961 -0.105675,-2.758542 0.659894,-5.838745 2.582031,-7.324218 l 0.386719,-0.298829 0.175781,-0.457031 c 0.02387,-0.0618 0.01651,-0.04086 0.03711,-0.08789 1.3767,-0.547296 2.78307,-0.969613 4.15625,-1.144532 z"
         id="path1143" />
      <path
         id="path1165-6"
         style="color:#000000;fill:#000000;stroke-width:3.77953;-inkscape-stroke:none"
         d="M 330.54297 309.07812 C 328.85461 309.05674 327.1709 309.16754 325.51367 309.41406 C 320.21055 310.20288 314.97003 312.55646 311.20703 316.92969 C 307.44403 321.30292 305.55003 327.51761 306.07812 334.42383 L 306.0918 334.68164 L 306.13672 334.94141 C 309.20139 354.52654 318.78433 371.27449 329.23242 386.63672 C 316.9164 378.91705 303.66477 372.24799 288.78906 369 C 285.45548 368.06506 281.99548 367.55469 278.52734 367.48242 C 279.03473 368.68843 279.55777 370.0618 280.04883 371.59961 C 281.39147 375.80418 282.0032 379.29806 282.26562 381.09375 C 283.31209 381.24606 284.33031 381.45771 285.30469 381.73438 L 285.51172 381.79297 L 285.71875 381.83789 C 308.76217 386.78979 329.05923 402.30801 349.77148 416.82812 C 350.75988 417.73658 351.75105 418.63079 352.74219 419.51758 C 355.04085 422.66742 357.3864 425.83077 359.82617 428.95898 C 361.95927 424.56356 365.06174 420.66782 369.17969 417.72656 C 369.58384 417.56231 370.00142 417.41056 370.41406 417.25391 C 367.83323 414.9777 365.24946 412.80466 362.78125 410.67773 C 359.78037 406.63695 356.78885 402.53045 353.73438 398.43945 L 353.70508 398.39453 C 338.93925 377.36652 323.0573 356.70044 319.27539 333.16992 C 319.02742 329.22341 319.93673 327.06441 321.23242 325.55859 C 322.5611 324.01446 324.64653 322.91306 327.46289 322.49414 C 333.09562 321.6563 340.82799 324.32199 344.55078 329.06445 L 344.91992 329.53711 L 345.36328 329.92773 C 366.74306 348.85576 377.00265 377.89629 383.98242 406.70703 C 384.08824 409.14925 384.17699 411.56765 384.23438 413.96484 C 389.09754 413.49829 394.00683 413.80263 398.56641 415.20117 C 398.32529 412.7777 398.08411 410.49328 397.92188 408.43555 L 397.87891 407.93359 L 397.76758 407.45312 C 397.53742 406.46619 397.30218 405.47682 397.06445 404.48438 C 396.99852 402.16264 396.91399 399.85696 396.80859 397.57617 C 396.0771 381.75329 396.01258 367.0041 401.58398 353.50586 C 404.6736 346.77259 409.41404 340.47384 415.14062 335.49219 C 414.83411 333.54614 414.37282 330.60508 413.63086 325.7793 C 413.28503 323.53079 413.06469 321.7103 412.91211 320.19727 C 402.6163 327.08411 394.44285 337.24023 389.47852 348.13281 L 389.43359 348.23438 L 389.38867 348.33789 C 387.11038 353.83 385.62568 359.36401 384.68164 364.89258 C 377.80267 348.42931 368.37716 332.93176 354.57617 320.53906 C 349.20541 313.94059 341.50693 310.10748 333.58203 309.25977 C 332.57089 309.15161 331.55598 309.09096 330.54297 309.07812 z M 441.65234 311.23047 L 440.58203 311.24414 C 438.21488 311.27853 435.89104 311.48931 433.61523 311.85938 C 433.50034 313.26452 433.39227 315.35325 433.42969 318.43555 C 433.46824 321.59664 433.79595 323.95007 434.08398 325.49805 C 435.86237 325.09961 437.66331 324.84216 439.47461 324.73828 C 444.38085 326.71112 447.10172 330.88231 448.85742 337.7168 C 450.6276 344.60742 450.84386 353.0928 451.10938 360.32617 C 446.15646 375.89544 436.42005 390.74487 424.68945 402.8457 L 424.57812 402.95703 L 424.47461 403.08203 C 419.57242 408.65767 414.20237 413.87189 408.58203 418.88477 L 408.89453 418.98438 C 412.32553 422.57408 415.52926 426.55936 418.17578 430.85742 C 424.8351 424.75814 431.60621 418.93561 438.70117 413.73438 C 456.08677 402.7381 475.6653 395.04846 495.81445 390.82812 C 499.65506 392.10806 503.48771 396.49938 504.87109 402.28516 C 506.34231 408.43853 505.00801 414.02216 501.20312 416.66602 C 486.23531 425.43748 469.25825 431.57999 452.13281 433.7793 C 441.52156 434.34264 431.66304 436.8014 422.31055 439.04492 C 424.08586 443.5658 425.13175 448.3441 425.12891 453.31445 C 425.12482 453.34779 425.11748 453.38074 425.11328 453.41406 C 427.42894 453.18078 429.76572 452.84586 432.12695 452.375 C 441.83848 451.7985 452.69855 455.66194 465.5332 456.81836 C 481.15814 459.41207 496.51715 465.20875 508.66602 474.73828 C 515.94195 481.57114 517.00986 494.07932 510.37891 501.46875 C 501.1312 506.47704 489.89615 506.27715 479.86914 501.78711 L 479.43359 501.59375 L 478.97656 501.46094 C 459.21852 495.84229 439.09694 485.56424 422.63086 471.96289 L 422.47461 471.83789 L 422.32031 471.71875 C 421.12657 470.84645 419.94689 469.95043 418.77734 469.03516 C 415.81634 473.05079 411.98027 476.39966 407.5293 478.63672 C 409.66528 481.203 411.74635 483.79734 413.74219 486.43164 L 413.75 486.44727 L 413.76562 486.46289 C 423.23266 498.83283 434.08637 508.92216 441.0918 520.44141 C 442.88416 527.13068 445.74864 533.20612 447.86914 538.5625 C 450.16089 544.35126 451.25906 549.13513 450.26758 553.61523 C 448.33647 559.19113 444.45295 561.34024 439.18164 561.63867 C 433.82144 561.94217 427.62589 559.46539 424.1875 555.29102 L 423.9668 555.01758 L 423.71484 554.76562 C 414.77101 546.00525 411.62235 531.81224 404.41211 517.65039 C 400.79635 506.23502 397.30601 494.73992 394.79688 483.3418 C 390.0345 484.19679 385.28139 483.44922 380.9082 481.54102 C 381.0339 482.17974 381.1653 482.81757 381.29688 483.45508 C 380.77638 486.67944 380.07729 489.81208 379.09766 492.82227 C 373.65615 505.08169 370.93787 517.20494 366.97852 528.70703 C 361.67811 540.43698 355.77452 549.66601 346.77344 557.29688 L 346.75977 557.3125 L 346.73633 557.33594 C 342.93118 560.6123 335.30874 563.86437 330.5332 563.91211 C 328.14544 563.93479 326.79168 563.39153 326.00781 562.66602 C 325.22395 561.9405 324.30587 560.59442 324.27344 556.71484 L 324.26562 555.9707 L 324.0957 555.23828 C 320.03453 538.1256 322.31768 519.66119 333.44141 506.67383 L 333.45703 506.66602 L 333.46484 506.65039 C 342.24703 496.31027 355.90323 488.82536 367.20703 476.92383 L 367.21875 476.91211 C 367.41018 476.72735 367.60472 476.54859 367.79688 476.36523 C 368.71945 475.61008 369.6363 474.8588 370.55273 474.10547 C 370.03903 473.55253 369.53971 472.98343 369.06055 472.39453 C 366.02979 470.06793 363.53901 467.19572 361.58008 463.98828 C 361.09664 464.45004 360.61609 464.91102 360.13477 465.37305 C 344.96741 477.54459 330.37845 489.01805 312.69336 493.68945 C 303.5611 495.1519 294.04608 499.54796 286.10352 501.1582 C 282.07783 501.97435 278.70139 502.0346 276.45508 501.38086 C 274.46064 500.8004 273.07642 499.73911 271.64844 497.27539 C 270.07856 489.45891 272.61637 482.41434 278.04102 476.42969 C 283.63263 470.26082 292.17527 465.75744 300.17188 464.60352 L 300.17969 464.60352 L 300.1875 464.60352 C 318.56418 461.90372 336.79964 458.69399 354.99023 455.14844 C 355.91566 455.17294 356.84094 455.19118 357.76758 455.20117 C 356.50862 450.7597 356.06342 446.06524 356.45312 441.46484 C 356.42386 441.46942 356.3945 441.47392 356.36523 441.47852 C 333.36683 441.1167 310.14621 436.12548 287.45312 429.66406 C 273.65697 424.57671 262.43497 412.99482 258.05078 399.17773 C 256.61663 392.72861 258.25173 388.89911 261.9375 385.94141 A 1.8897638 1.8897638 0 0 1 261.85156 385.40234 C 261.85156 385.40234 261.96813 380.40367 260.14648 376.50781 C 259.37464 374.85714 258.68695 373.56559 258.12891 372.5918 C 258.0337 372.6466 257.93846 372.70188 257.84375 372.75781 C 248.63307 378.19308 242.15891 389.35918 245.14648 402.31445 L 245.20703 402.55078 L 245.27344 402.78125 C 250.88886 420.9562 265.15168 435.62199 283.02344 442.1543 L 283.25195 442.23633 L 283.48047 442.30273 C 292.65282 444.91963 302.02319 447.39892 311.54102 449.47266 C 307.12157 450.18183 302.69778 450.86476 298.26758 451.51562 C 286.96731 453.15027 276.05962 458.9187 268.24414 467.54102 C 260.42495 476.16741 255.77006 488.22091 258.74414 500.9668 L 258.92188 501.72656 L 259.26953 502.42188 C 262.27161 508.43291 267.33742 512.50701 272.75586 514.08398 C 278.1743 515.66095 283.59139 515.16404 288.73047 514.12305 C 299.00863 512.03928 309.13757 507.60559 315.04688 506.71094 L 315.38672 506.66016 L 315.71875 506.57031 C 316.38061 506.39868 317.0352 506.21669 317.6875 506.03125 C 308.42573 521.6124 307.16456 540.52314 311.06641 557.60156 C 311.2721 563.64063 313.28342 568.90773 317.02539 572.37109 C 320.92711 575.98232 326.00003 577.18726 330.66602 577.14062 C 339.98857 577.04765 348.96075 572.86382 355.34375 567.375 C 366.25995 558.11523 373.36277 546.78933 379.14258 533.94922 L 379.26953 533.68359 L 379.36523 533.40234 C 382.46964 524.45288 384.71955 515.8551 387.50391 507.7168 C 388.90713 512.46776 390.37607 517.16844 391.84766 521.8125 L 392.02539 522.36719 L 392.29102 522.88281 C 398.53313 534.8353 401.61143 551.26861 414.13281 563.80859 C 420.5935 571.54718 430.38383 575.38396 439.92578 574.84375 C 449.53013 574.29995 459.41537 568.41552 462.97852 557.52734 L 463.06055 557.27539 L 463.11914 557.02539 C 465.20982 548.3976 462.8474 540.47059 460.16602 533.69727 C 457.48452 526.92394 454.43977 520.87166 453.30859 515.72266 L 453.07227 514.65234 L 452.50391 513.72266 C 449.90499 509.42723 447.0066 505.45866 443.98828 501.69141 C 454.02172 506.85848 464.46189 511.00156 474.90039 514.00391 C 488.47608 519.94589 504.55798 520.39379 518.0332 512.4668 L 518.77148 512.03125 L 519.37695 511.42578 C 532.36594 498.3109 530.56347 476.80314 517.47266 464.81055 L 517.29492 464.64844 L 517.11133 464.49219 C 503.10539 453.42119 486.10417 447.01467 469.12695 444.00781 C 482.89223 440.57922 496.14324 435.03812 508.20898 427.92969 L 508.38477 427.82617 L 508.55469 427.70898 C 518.17495 421.20415 520.11308 409.17221 517.73047 399.20703 C 515.34785 389.24189 508.60523 379.54721 497.65234 377.32617 L 496.35352 377.06836 L 495.04688 377.32031 C 479.59589 380.38225 464.47154 385.40512 450.22266 392.24805 C 456.17898 383.3035 461.0399 373.57502 464.17578 363.29492 L 464.5 362.23047 L 464.45508 361.11719 C 464.18295 353.89081 464.10812 343.90847 461.67188 334.42383 C 459.23533 324.93919 453.66701 315.04094 442.67188 311.55469 L 441.65234 311.23047 z M 429.79102 312.64062 C 425.10285 313.79587 420.64954 315.62601 416.49414 317.98633 C 416.61395 319.58208 416.85771 321.88814 417.36719 325.20312 C 418.10658 330.01218 418.2398 330.83125 418.54492 332.77539 C 422.24376 330.07285 426.25908 327.92067 430.44336 326.51758 C 430.10358 324.77881 429.69397 322.06975 429.65039 318.48633 C 429.62015 316.01325 429.69804 314.13665 429.79102 312.64062 z M 274.43164 367.60352 C 273.94335 367.64282 273.45507 367.68902 272.96875 367.74609 C 269.0058 368.21014 265.11892 369.25283 261.49219 370.875 C 262.09689 371.93342 262.80677 373.26915 263.57227 374.90625 C 265.06168 378.09148 265.48359 381.5055 265.5957 383.58594 C 268.18262 382.27009 271.30605 381.39655 274.53516 381.01758 C 275.81192 380.86791 277.10433 380.79562 278.38672 380.80469 C 278.11743 379.06954 277.63397 376.4663 276.44727 372.75 C 275.76827 370.62368 275.06986 368.98217 274.43164 367.60352 z "
         transform="matrix(0.26458333,0,0,0.26458333,5.1479065,7.7904742)" />
      <g
         id="path869-4">
        <path
           style="color:#000000;fill:#ffcc00;stroke-width:3.5;-inkscape-stroke:none;fill-opacity:0.75"
           d="m 112.11298,118.56893 c -2.81168,-1.86389 -6.67468,-1.40358 -9.63871,-0.19894 -4.604062,3.28847 -4.467027,11.05892 -0.0313,14.46407 2.12862,2.61607 5.59501,3.94412 8.72783,2.20836 3.28761,-0.86479 5.70233,-3.95841 6.10682,-7.25625 0.002,-3.4957 -1.95382,-6.63316 -4.29557,-9.08323 0,0 -0.26551,-0.0843 -0.26551,-0.0843 0,0 -0.60352,-0.0498 -0.60352,-0.0498 z"
           id="path1180" />
        <path
           style="color:#000000;fill:#000000;-inkscape-stroke:none"
           d="m 107.36328,115.54492 c -1.96002,0.0345 -3.89317,0.53024 -5.54883,1.20313 l -0.18945,0.0781 -0.16797,0.11914 c -5.590186,3.99282 -5.49824,12.79745 -0.30273,17.05664 2.5125,3.03099 6.84698,4.66855 10.72461,2.61524 3.92338,-1.16465 6.65543,-4.7092 7.13476,-8.61719 l 0.0137,-0.10547 v -0.10742 c 0.002,-4.14904 -2.25823,-7.65529 -4.77929,-10.29297 l -0.31055,-0.32422 -0.88086,-0.27929 -0.57812,-0.0488 c -1.61747,-0.9052 -3.36689,-1.32767 -5.11524,-1.29688 z m -0.0254,3.54688 c 1.4154,-0.0308 2.76569,0.24419 3.80859,0.93554 l 0.375,0.24805 0.44727,0.0371 0.043,0.004 c 1.96183,2.16028 3.46178,4.71014 3.5,7.35937 -0.35863,2.55639 -2.32256,5.02554 -4.78711,5.67383 l -0.21094,0.0566 -0.1914,0.10547 c -2.32315,1.28715 -4.7969,0.33827 -6.52149,-1.78125 l -0.1289,-0.16016 -0.16407,-0.125 c -3.38088,-2.5954 -3.50486,-8.91291 -0.12695,-11.50781 1.24967,-0.47837 2.6251,-0.8167 3.95703,-0.8457 z"
           id="path1182" />
      </g>
      <path
         id="path1165-6-9"
         style="color:#000000;fill:#000000;stroke-width:3.77953;-inkscape-stroke:none"
         d="M 439.21289 85.644531 C 437.86438 85.657868 436.52094 85.756682 435.19336 85.941406 C 429.88305 86.680327 424.6184 88.986534 420.81445 93.324219 C 417.01051 97.661903 415.05042 103.85668 415.51367 110.76758 L 415.53711 111.02539 L 415.57422 111.2832 C 418.46265 130.9492 427.93049 147.82884 438.26562 163.32422 C 425.98472 155.39029 412.74696 148.33252 397.62109 145.06445 C 392.88451 143.87538 387.81557 143.43467 382.78906 143.875 C 377.72759 144.3184 372.71772 145.63989 368.14453 147.94922 C 358.99823 152.56788 351.86485 162.69174 353.59375 175.33594 L 353.62305 175.55078 L 353.66797 175.76562 C 357.72889 195.61651 373.13978 211.25026 391.41992 218.26172 L 391.66211 218.35156 L 391.91406 218.42383 C 401.06293 221.12867 410.41116 223.69745 419.91016 225.86133 C 415.48644 226.52794 411.06005 227.16824 406.62695 227.77734 C 395.30749 229.30357 384.33428 234.97954 376.43359 243.53125 C 368.53291 252.08296 363.76909 264.0856 366.62305 276.85938 L 366.79297 277.62109 L 367.13281 278.32227 C 370.07824 284.3613 375.10636 288.47565 380.50977 290.10352 C 385.91317 291.73138 391.33372 291.28843 396.48242 290.29492 C 406.77982 288.3079 416.95548 283.96624 422.87305 283.12695 L 423.21289 283.08203 L 423.54492 283.00195 C 424.20074 282.83845 424.85145 282.66538 425.49805 282.48828 C 423.68944 285.45058 422.12425 288.64596 420.88867 292.125 C 414.09236 309.53894 415.19993 329.95841 422.74023 346.4707 L 423.33203 347.76367 L 424.40234 348.70117 C 431.13561 354.59572 439.78299 354.73694 447.07812 352.46484 C 446.95756 350.29955 446.77726 347.47074 446.48828 344.41797 C 446.27549 342.17046 445.82434 340.34518 445.38867 338.98047 C 445.37733 338.985 445.37071 338.98998 445.35938 338.99414 C 440.48892 341.18056 437.2606 341.28422 434.16797 339.16992 C 428.85618 326.27054 428.13622 309.82306 433.23828 296.83594 L 433.2832 296.72461 L 433.32031 296.61328 C 438.20471 282.77009 451.62242 273.5107 464.90039 263.12305 L 464.9082 263.11523 L 464.9082 263.10742 C 469.8669 259.21095 474.41345 255.16821 478.79102 251.16406 C 478.24064 250.5665 477.70927 249.94956 477.19922 249.31055 C 474.23248 246.98868 471.79745 244.13989 469.88086 240.96875 C 469.79824 241.0476 469.71341 241.12829 469.63086 241.20703 C 453.88251 253.60833 438.85823 265.46036 420.62891 270.08984 C 411.48612 271.4682 401.92745 275.77556 393.97266 277.31055 C 389.93945 278.08881 386.5663 278.11043 384.32617 277.43555 C 382.33795 276.83655 380.9687 275.77002 379.56445 273.29492 C 378.06829 265.46405 380.67488 258.44084 386.15625 252.50781 C 391.80634 246.39215 400.3837 241.96827 408.39062 240.88867 L 408.39844 240.88867 L 408.40625 240.88867 C 426.8067 238.36088 445.07223 235.32077 463.29492 231.94727 C 464.21985 231.98049 465.14404 232.0047 466.07031 232.02344 C 464.85294 227.57355 464.45222 222.87715 464.88281 218.2832 C 441.86101 217.71904 418.66038 212.51729 396.00391 205.83203 C 381.77776 200.31797 369.80034 187.82331 366.72656 173.38086 C 365.76721 165.91097 368.60594 162.53687 374.10156 159.76172 C 376.87524 158.36107 380.37561 157.48673 383.97852 157.16992 C 387.58143 156.85312 391.28979 157.09294 394.47461 157.90039 L 394.59375 157.92969 L 394.71094 157.95312 C 416.44893 162.61252 435.46047 177.59082 455.44922 191.16406 C 457.5988 193.21079 459.78176 195.1689 461.94336 197.08008 C 464.03153 199.98996 466.16313 202.90741 468.37305 205.79688 C 470.5476 201.41926 473.68516 197.5501 477.83203 194.64648 C 478.24184 194.48437 478.66558 194.3359 479.08398 194.18164 C 476.63017 191.98853 474.15683 189.92234 471.76953 187.91602 C 468.71761 183.72912 465.68026 179.46897 462.57422 175.22656 L 462.56641 175.21875 C 447.99051 154.0384 432.29518 133.21208 428.73438 109.63086 C 428.52575 105.68869 429.44915 103.5411 430.75781 102.04883 C 432.10091 100.51727 434.19741 99.437343 437.01758 99.044922 C 442.65792 98.260077 450.36109 100.9923 454.03906 105.76953 L 454.40234 106.24219 L 454.85156 106.64062 C 476.05733 125.77419 486.03143 154.92033 492.74023 183.80273 C 492.82147 186.23375 492.88487 188.64158 492.91797 191.02734 C 497.78776 190.60602 502.69582 190.95757 507.24414 192.40039 C 507.02711 189.9773 506.80907 187.69268 506.66602 185.63477 L 506.62891 185.14062 L 506.51758 184.65234 C 506.29493 183.6555 506.06816 182.65485 505.83789 181.65234 C 505.7937 179.34165 505.73009 177.04638 505.64648 174.77539 C 505.06379 158.94631 505.14675 144.18783 510.84375 130.74219 C 517.86898 115.8119 533.05959 103.10806 548.98633 102.33789 C 553.87949 104.35504 556.56553 108.54188 558.25781 115.39648 C 559.96196 122.29927 560.0974 130.78859 560.29492 138.02148 C 555.19774 153.5468 545.33059 168.31163 533.48438 180.30469 L 533.37305 180.41602 L 533.26172 180.5332 C 528.31065 186.06068 522.89529 191.22369 517.23047 196.18164 L 517.5293 196.2793 C 520.96871 199.94505 524.16939 204.01308 526.79297 208.39648 C 540.66058 195.92911 555.01449 184.7946 571.90625 178.72266 C 580.72216 176.62481 589.91281 171.64853 597.45508 169.80078 C 601.29466 168.86013 604.37709 168.7977 606.29883 169.42383 C 608.22057 170.04996 609.64223 170.99837 611.24414 174.8125 L 611.45898 175.31445 L 611.74609 175.77148 C 615.89662 182.36625 615.05395 187.25676 611.76172 192.10156 C 608.46911 196.94637 601.91761 201.0504 595.00391 202.21484 L 594.06641 202.37695 L 593.21094 202.78906 C 577.07031 210.64817 557.8429 211.03832 537.95703 215.03711 L 537.93555 215.04492 L 537.91211 215.04492 C 535.50507 215.54608 533.13861 216.0697 530.80273 216.58594 C 532.50708 221.08752 533.4896 225.83388 533.44141 230.75977 C 533.44037 230.76761 533.43854 230.77536 533.4375 230.7832 C 535.5303 230.5875 537.64154 230.31339 539.77344 229.93359 C 552.9404 229.90185 567.1093 233.89611 582.11523 236.50391 C 595.64239 240.397 610.06688 245.43477 617.54883 254.69141 L 617.90234 255.13477 L 618.33203 255.51172 C 622.26176 258.95401 623.89945 265.68264 622.52344 271.61914 C 621.14742 277.55564 617.778 281.67084 611.87109 282.21875 L 611.23633 282.27734 L 610.61719 282.46289 C 598.75147 285.95041 585.91107 278.23488 570.87305 273.82617 C 554.94499 267.22149 540.66759 257.33034 527.24023 246.04297 C 524.20218 250.20322 520.21882 253.65071 515.60156 255.91602 C 517.71799 258.50836 519.77895 261.12881 521.75391 263.78711 L 521.76172 263.80078 L 521.76953 263.80859 C 531.07639 276.20915 541.7616 286.37271 548.66211 297.89062 C 550.60479 306.09618 554.57943 313.4689 556.66992 319.82227 C 557.79807 323.25083 558.33852 326.25757 558.14062 328.70312 C 557.94409 331.13265 557.22383 333.11037 555.02539 335.53125 C 550.4412 340.38674 545.93964 340.50766 540.1875 338.27734 C 534.44587 336.05111 528.49588 330.599 525.54883 325.32227 C 517.2505 307.65964 509.18823 289.93635 505.58789 271.51562 L 505.55078 271.31641 L 505.49805 271.125 C 504.58209 267.60193 503.69499 264.05278 502.89648 260.50781 C 502.89772 260.50131 502.89915 260.49478 502.90039 260.48828 C 498.06753 261.32488 493.25702 260.51568 488.85156 258.52148 C 488.99911 259.22419 489.15409 259.91966 489.30859 260.61719 C 488.98061 262.01243 488.59187 263.37189 488.12109 264.6875 L 488.01953 264.97461 L 487.94531 265.26367 C 484.85373 277.27827 479.26226 288.92691 475.67383 302.5332 C 472.71291 310.83042 467.93034 319.0366 462.64648 325.36328 C 462.66538 325.41759 463.81214 328.50832 465.37891 334.68945 C 465.92388 336.8396 466.29629 338.66674 466.60156 340.29883 C 467.8208 339.18317 468.94857 338.08115 469.97656 337.0293 L 470.02148 336.97852 L 470.07422 336.92578 C 477.69518 328.77928 484.2228 318.06824 488.23242 306.69727 L 488.32031 306.43945 L 488.38867 306.17383 C 490.18436 299.29446 492.77753 292.51328 495.33203 285.43555 C 499.88205 301.64729 506.8997 316.7714 513.71484 331.27148 L 513.81055 331.4707 L 513.91406 331.66406 C 518.46631 339.88865 526.15471 347.01983 535.40234 350.60547 C 544.64998 354.19111 556.48454 353.32231 564.70898 344.56641 L 564.74023 344.53711 L 564.76953 344.5 C 568.80879 340.08118 570.91626 334.81481 571.32422 329.77344 C 571.73218 324.73206 570.67024 320.02176 569.24219 315.68164 C 566.38604 307.00141 562.11855 299.17436 561.07227 293.58789 L 560.84961 292.43555 L 560.25977 291.43164 C 557.7365 287.1713 554.91744 283.22705 551.97852 279.47852 C 556.44869 281.87368 561.05238 284.0732 565.80273 286.04297 L 566.15625 286.19141 L 566.5332 286.30078 C 578.75181 289.76778 594.97457 300.35379 613.6875 295.22656 C 625.37448 293.83343 633.11389 284.49736 635.40625 274.60742 C 637.7073 264.68015 635.50039 253.32646 627.34375 245.91406 C 616.3403 232.72945 599.28341 227.65777 585.62109 223.73242 L 585.26758 223.63672 L 584.90625 223.57031 C 582.28851 223.12247 579.64174 222.60496 576.9668 222.05859 C 584.05067 220.51408 591.15761 218.38398 598.13086 215.0918 C 608.10732 213.17961 617.167 207.67825 622.70117 199.53516 C 628.29419 191.30542 629.41011 179.72035 623.21875 169.35742 C 620.47651 163.10267 615.7762 158.59912 610.39453 156.8457 C 607.64795 155.95084 604.90636 155.66672 602.20898 155.75977 C 599.51161 155.85282 596.86252 156.32402 594.31055 156.94922 C 584.10257 159.45003 574.11923 164.66125 568.50391 165.93164 L 568.11914 166.02148 L 567.75 166.1543 C 564.88856 167.17191 562.10683 168.29985 559.39648 169.52539 C 565.3084 160.75132 570.15853 151.21123 573.33984 141.12109 L 573.67188 140.05859 L 573.64062 138.95117 C 573.43615 131.72286 573.44857 121.73561 571.10156 112.22852 C 568.75444 102.72142 563.28437 92.772826 552.32227 89.183594 L 551.30273 88.84375 L 550.23242 88.851562 C 527.09079 88.971374 507.82868 105.89099 498.78125 125.25781 L 498.73828 125.36133 L 498.69336 125.46484 C 496.36444 130.93432 494.82969 136.4537 493.83398 141.97266 C 487.11639 125.45953 477.84802 109.88618 464.18359 97.369141 C 458.8743 90.699571 451.19181 86.785086 443.26172 85.861328 C 441.91496 85.70444 440.5614 85.631194 439.21289 85.644531 z M 459.73438 328.56836 C 456.76129 331.49463 452.77325 334.80051 448.77148 337.19336 C 449.34684 338.85922 449.98473 341.22141 450.25391 344.06445 C 450.48786 346.53803 450.65424 349.02061 450.77734 351.0625 C 455.42835 348.97458 459.65209 346.12325 463.28516 343.16406 C 462.99413 341.33652 462.51798 338.7799 461.7168 335.61914 C 460.84664 332.18605 460.1982 330.02099 459.73438 328.56836 z "
         transform="matrix(0.26458333,0,0,0.26458333,5.1479065,7.7904742)" />
      <path
         style="color:#000000;fill:#ffcc00;stroke-width:3.5;-inkscape-stroke:none;fill-opacity:0.75"
         d="m 140.85855,59.636654 c -2.79391,-1.890509 -6.66119,-1.466936 -9.63643,-0.289981 -4.63435,3.244947 -4.57152,11.016641 -0.16776,14.463172 2.10398,2.635935 5.55767,3.996528 8.70669,2.290296 3.2954,-0.833871 5.7396,-3.904499 6.17441,-7.198499 0.0342,-3.495433 -1.89119,-6.651387 -4.2103,-9.123117 0,0 -0.26447,-0.08683 -0.26447,-0.08683 0,0 -0.60214,-0.05504 -0.60214,-0.05504 z"
         id="path1218" />
      <path
         style="color:#000000;fill:#000000;-inkscape-stroke:none"
         d="m 136.13672,56.568359 c -1.96032,0.01597 -3.89658,0.492925 -5.5586,1.150391 l -0.1914,0.07617 -0.16797,0.11914 c -5.63328,3.944396 -5.6202,12.763917 -0.44727,17.066407 2.48592,3.043333 6.79247,4.713211 10.68164,2.701172 3.93446,-1.127413 6.70145,-4.646614 7.2168,-8.550782 l 0.0137,-0.105468 0.002,-0.107422 c 0.0406,-4.148296 -2.1866,-7.674619 -4.6836,-10.335938 l -0.30664,-0.326172 -0.87695,-0.289062 -0.57813,-0.05273 c -1.6087,-0.920315 -3.35506,-1.359951 -5.10351,-1.345703 z m -0.0566,3.546875 c 1.4156,-0.01742 2.76055,0.26947 3.79687,0.970703 l 0.37305,0.251954 0.44922,0.04102 0.041,0.0039 c 1.94135,2.177842 3.41726,4.741206 3.43164,7.390625 -0.38142,2.553242 -2.36884,5.005596 -4.83984,5.63086 l -0.21289,0.05273 -0.19141,0.103516 c -2.33517,1.265267 -4.8012,0.29385 -6.50586,-1.841797 l -0.12695,-0.160156 -0.16211,-0.126953 c -3.35535,-2.626012 -3.42006,-8.94333 -0.0215,-11.507813 1.25461,-0.467135 2.63584,-0.792188 3.96875,-0.808594 z"
         id="path1220" />
    </g>
  </g>
</svg>
