<?xml version="1.0" encoding="UTF-8" standalone="no"?>
<!-- Created with Inkscape (http://www.inkscape.org/) -->

<svg
   width="82.537918mm"
   height="70.127411mm"
   viewBox="0 0 82.537918 70.127415"
   version="1.1"
   id="svg5"
   inkscape:version="1.1.2 (b8e25be833, 2022-02-05)"
   sodipodi:docname="madelink-logo.svg"
   xmlns:inkscape="http://www.inkscape.org/namespaces/inkscape"
   xmlns:sodipodi="http://sodipodi.sourceforge.net/DTD/sodipodi-0.dtd"
   xmlns="http://www.w3.org/2000/svg"
   xmlns:svg="http://www.w3.org/2000/svg">
  <sodipodi:namedview
     id="namedview7"
     pagecolor="#ffffff"
     bordercolor="#eeeeee"
     borderopacity="1"
     inkscape:pageshadow="0"
     inkscape:pageopacity="0"
     inkscape:pagecheckerboard="0"
     inkscape:document-units="mm"
     showgrid="false"
     inkscape:snap-nodes="true"
     inkscape:snap-global="false"
     fit-margin-top="10"
     fit-margin-left="10"
     fit-margin-right="10"
     fit-margin-bottom="10"
     inkscape:zoom="2.5358532"
     inkscape:cx="274.46384"
     inkscape:cy="137.23192"
     inkscape:window-width="1920"
     inkscape:window-height="1009"
     inkscape:window-x="-1928"
     inkscape:window-y="-8"
     inkscape:window-maximized="1"
     inkscape:current-layer="layer1"
     lock-margins="true" />
  <defs
     id="defs2">
    <inkscape:path-effect
       effect="simplify"
       id="path-effect2579"
       is_visible="true"
       lpeversion="1"
       steps="7"
       threshold="0.02"
       smooth_angles="0"
       helper_size="5"
       simplify_individual_paths="false"
       simplify_just_coalesce="false" />
    <inkscape:path-effect
       effect="simplify"
       id="path-effect1315"
       is_visible="true"
       lpeversion="1"
       steps="1"
       threshold="0.02"
       smooth_angles="0"
       helper_size="5"
       simplify_individual_paths="false"
       simplify_just_coalesce="false" />
    <inkscape:path-effect
       effect="simplify"
       id="path-effect1313"
       is_visible="true"
       lpeversion="1"
       steps="4"
       threshold="0.02"
       smooth_angles="0"
       helper_size="5"
       simplify_individual_paths="false"
       simplify_just_coalesce="false" />
    <inkscape:path-effect
       effect="simplify"
       id="path-effect1311"
       is_visible="true"
       lpeversion="1"
       steps="2"
       threshold="0.02"
       smooth_angles="0"
       helper_size="5"
       simplify_individual_paths="false"
       simplify_just_coalesce="false" />
    <inkscape:path-effect
       effect="simplify"
       id="path-effect1309"
       is_visible="true"
       lpeversion="1"
       steps="2"
       threshold="0.02"
       smooth_angles="0"
       helper_size="5"
       simplify_individual_paths="false"
       simplify_just_coalesce="false" />
    <inkscape:path-effect
       effect="simplify"
       id="path-effect1307"
       is_visible="true"
       lpeversion="1"
       steps="2"
       threshold="0.02"
       smooth_angles="0"
       helper_size="5"
       simplify_individual_paths="false"
       simplify_just_coalesce="false" />
    <inkscape:path-effect
       effect="simplify"
       id="path-effect1305"
       is_visible="true"
       lpeversion="1"
       steps="2"
       threshold="0.02"
       smooth_angles="0"
       helper_size="5"
       simplify_individual_paths="false"
       simplify_just_coalesce="false" />
    <inkscape:path-effect
       effect="simplify"
       id="path-effect1303"
       is_visible="true"
       lpeversion="1"
       steps="1"
       threshold="0.02"
       smooth_angles="0"
       helper_size="5"
       simplify_individual_paths="false"
       simplify_just_coalesce="false" />
    <inkscape:path-effect
       effect="simplify"
       id="path-effect1301"
       is_visible="true"
       lpeversion="1"
       steps="1"
       threshold="0.02"
       smooth_angles="0"
       helper_size="5"
       simplify_individual_paths="false"
       simplify_just_coalesce="false" />
    <inkscape:path-effect
       effect="simplify"
       id="path-effect890"
       is_visible="true"
       lpeversion="1"
       steps="2"
       threshold="0.02"
       smooth_angles="0"
       helper_size="5"
       simplify_individual_paths="false"
       simplify_just_coalesce="false" />
    <inkscape:path-effect
       effect="simplify"
       id="path-effect1303-6"
       is_visible="true"
       lpeversion="1"
       steps="1"
       threshold="0.02"
       smooth_angles="0"
       helper_size="5"
       simplify_individual_paths="false"
       simplify_just_coalesce="false" />
    <inkscape:path-effect
       effect="simplify"
       id="path-effect1315-6"
       is_visible="true"
       lpeversion="1"
       steps="1"
       threshold="0.02"
       smooth_angles="0"
       helper_size="5"
       simplify_individual_paths="false"
       simplify_just_coalesce="false" />
    <inkscape:path-effect
       effect="simplify"
       id="path-effect1311-8"
       is_visible="true"
       lpeversion="1"
       steps="2"
       threshold="0.02"
       smooth_angles="0"
       helper_size="5"
       simplify_individual_paths="false"
       simplify_just_coalesce="false" />
    <inkscape:path-effect
       effect="simplify"
       id="path-effect1307-1"
       is_visible="true"
       lpeversion="1"
       steps="2"
       threshold="0.02"
       smooth_angles="0"
       helper_size="5"
       simplify_individual_paths="false"
       simplify_just_coalesce="false" />
    <inkscape:path-effect
       effect="simplify"
       id="path-effect1313-3"
       is_visible="true"
       lpeversion="1"
       steps="4"
       threshold="0.02"
       smooth_angles="0"
       helper_size="5"
       simplify_individual_paths="false"
       simplify_just_coalesce="false" />
    <inkscape:path-effect
       effect="simplify"
       id="path-effect1301-7"
       is_visible="true"
       lpeversion="1"
       steps="1"
       threshold="0.02"
       smooth_angles="0"
       helper_size="5"
       simplify_individual_paths="false"
       simplify_just_coalesce="false" />
    <inkscape:path-effect
       effect="simplify"
       id="path-effect1309-6"
       is_visible="true"
       lpeversion="1"
       steps="2"
       threshold="0.02"
       smooth_angles="0"
       helper_size="5"
       simplify_individual_paths="false"
       simplify_just_coalesce="false" />
    <inkscape:path-effect
       effect="simplify"
       id="path-effect1305-2"
       is_visible="true"
       lpeversion="1"
       steps="2"
       threshold="0.02"
       smooth_angles="0"
       helper_size="5"
       simplify_individual_paths="false"
       simplify_just_coalesce="false" />
    <inkscape:path-effect
       effect="simplify"
       id="path-effect890-3"
       is_visible="true"
       lpeversion="1"
       steps="2"
       threshold="0.02"
       smooth_angles="0"
       helper_size="5"
       simplify_individual_paths="false"
       simplify_just_coalesce="false" />
    <inkscape:path-effect
       effect="simplify"
       id="path-effect890-3-7"
       is_visible="true"
       lpeversion="1"
       steps="2"
       threshold="0.02"
       smooth_angles="0"
       helper_size="5"
       simplify_individual_paths="false"
       simplify_just_coalesce="false" />
    <inkscape:path-effect
       effect="simplify"
       id="path-effect1305-2-8"
       is_visible="true"
       lpeversion="1"
       steps="2"
       threshold="0.02"
       smooth_angles="0"
       helper_size="5"
       simplify_individual_paths="false"
       simplify_just_coalesce="false" />
    <inkscape:path-effect
       effect="simplify"
       id="path-effect1309-6-1"
       is_visible="true"
       lpeversion="1"
       steps="2"
       threshold="0.02"
       smooth_angles="0"
       helper_size="5"
       simplify_individual_paths="false"
       simplify_just_coalesce="false" />
    <inkscape:path-effect
       effect="simplify"
       id="path-effect1301-7-3"
       is_visible="true"
       lpeversion="1"
       steps="1"
       threshold="0.02"
       smooth_angles="0"
       helper_size="5"
       simplify_individual_paths="false"
       simplify_just_coalesce="false" />
    <inkscape:path-effect
       effect="simplify"
       id="path-effect1313-3-9"
       is_visible="true"
       lpeversion="1"
       steps="4"
       threshold="0.02"
       smooth_angles="0"
       helper_size="5"
       simplify_individual_paths="false"
       simplify_just_coalesce="false" />
    <inkscape:path-effect
       effect="simplify"
       id="path-effect1307-1-2"
       is_visible="true"
       lpeversion="1"
       steps="2"
       threshold="0.02"
       smooth_angles="0"
       helper_size="5"
       simplify_individual_paths="false"
       simplify_just_coalesce="false" />
    <inkscape:path-effect
       effect="simplify"
       id="path-effect1311-8-2"
       is_visible="true"
       lpeversion="1"
       steps="2"
       threshold="0.02"
       smooth_angles="0"
       helper_size="5"
       simplify_individual_paths="false"
       simplify_just_coalesce="false" />
    <inkscape:path-effect
       effect="simplify"
       id="path-effect1315-6-4"
       is_visible="true"
       lpeversion="1"
       steps="1"
       threshold="0.02"
       smooth_angles="0"
       helper_size="5"
       simplify_individual_paths="false"
       simplify_just_coalesce="false" />
    <inkscape:path-effect
       effect="simplify"
       id="path-effect1303-6-0"
       is_visible="true"
       lpeversion="1"
       steps="1"
       threshold="0.02"
       smooth_angles="0"
       helper_size="5"
       simplify_individual_paths="false"
       simplify_just_coalesce="false" />
    <inkscape:path-effect
       effect="simplify"
       id="path-effect1315-5"
       is_visible="true"
       lpeversion="1"
       steps="1"
       threshold="0.02"
       smooth_angles="0"
       helper_size="5"
       simplify_individual_paths="false"
       simplify_just_coalesce="false" />
  </defs>
  <g
     inkscape:label="Layer 1"
     inkscape:groupmode="layer"
     id="layer1"
     transform="translate(-50.972175,-60.406394)">
    <path
       id="path9320"
       style="opacity:1;fill:#ffffff;fill-opacity:1;stroke:#ffffff;stroke-width:0;stroke-linecap:round;stroke-linejoin:round;stroke-miterlimit:4;stroke-dasharray:none;paint-order:fill markers stroke"
       d="m 103.3849,71.92368 c -0.0767,-9.27e-4 -0.15129,0.0034 -0.22266,0.01328 -0.28555,0.03975 -0.49779,0.149125 -0.63379,0.304243 -0.1325,0.15115 -0.226,0.368651 -0.20488,0.767927 0.36053,2.388361 1.94964,4.497703 3.42541,6.642901 l 10e-4,7.95e-4 c 0.31448,0.42968 0.62201,0.86116 0.93099,1.285221 0.23563,0.198076 0.47954,0.402089 0.72181,0.617978 1.10059,-0.379916 2.44884,-0.477832 3.44438,0.196038 l 0.23038,0.02097 0.10118,0.03324 c 0.88746,0.946178 1.62437,2.154414 1.61127,3.492464 -0.16636,1.260942 -1.10185,2.436389 -2.36293,2.755594 -0.26851,0.145543 -0.5426,0.224379 -0.81569,0.260922 0.0733,-0.0054 0.1469,-0.01403 0.22049,-0.0267 -8e-5,7.95e-4 0,0.0011 0,0.002 0.0808,0.359042 0.17065,0.718507 0.2634,1.075334 l 0.005,0.01947 0.003,0.02017 c 0.36451,1.865697 1.18081,3.660754 2.021,5.449667 0.29838,0.534443 0.90081,1.086644 1.48214,1.312124 0.5824,0.22589 1.03816,0.213644 1.5023,-0.278131 0.2226,-0.245195 0.2955,-0.445502 0.31542,-0.691569 0.02,-0.247691 -0.0346,-0.552224 -0.14887,-0.899476 -0.21167,-0.643483 -0.61409,-1.39021 -0.81078,-2.221291 -0.69864,-1.166557 -1.7805,-2.195953 -2.72282,-3.45191 l -0.001,-7.97e-4 -0.001,-0.0015 c -0.19994,-0.269242 -0.40859,-0.534644 -0.62287,-0.797206 0.46747,-0.229436 0.87077,-0.578607 1.17837,-0.999965 1.3595,1.143213 2.80508,2.145017 4.41773,2.813951 1.52256,0.446525 2.82264,1.22797 4.02403,0.874749 l 0.0626,-0.01888 0.0642,-0.0061 c 0.59807,-0.0555 0.93921,-0.47229 1.07851,-1.073553 0.13933,-0.601262 -0.0264,-1.282754 -0.42436,-1.6314 l -0.0436,-0.03817 -0.0356,-0.04491 c -0.75754,-0.937535 -2.21799,-1.447772 -3.58758,-1.842075 -1.51931,-0.264126 -2.95388,-0.66852 -4.28699,-0.665459 -0.21587,0.03847 -0.42962,0.06622 -0.64151,0.08605 8e-5,-7.94e-4 8e-5,-0.0015 0,-0.0024 0.003,-0.498907 -0.0946,-0.97963 -0.26717,-1.43556 0.23649,-0.05228 0.47613,-0.105312 0.71982,-0.156073 h 0.001 l 10e-4,-5.75e-4 c 2.01398,-0.40503 3.96071,-0.444523 5.59493,-1.240512 l 0.0866,-0.04173 0.0948,-0.01635 c 0.7,-0.117936 1.36333,-0.533601 1.6967,-1.024299 0.33336,-0.49069 0.41868,-0.986013 -0.001,-1.653948 l -0.0289,-0.04629 -0.0216,-0.05084 c -0.16229,-0.3863 -0.30615,-0.482362 -0.50073,-0.545775 -0.19459,-0.06343 -0.50666,-0.05728 -0.89541,0.03799 -0.76363,0.187141 -1.69417,0.691153 -2.58677,0.903628 -1.71024,0.61498 -3.16355,1.742716 -4.56761,3.005439 -0.26564,-0.443959 -0.58969,-0.85598 -0.93793,-1.227258 l -0.0302,-0.0097 c 0.57355,-0.502155 1.12186,-1.025075 1.62313,-1.584911 l 0.0114,-0.01195 0.0114,-0.01146 c 1.19939,-1.214684 2.19843,-2.710104 2.71451,-4.282545 -0.02,-0.732564 -0.0336,-1.592383 -0.20624,-2.291517 -0.17143,-0.694248 -0.44332,-1.118309 -0.93873,-1.322605 -1.61253,0.078 -3.15058,1.364682 -3.86186,2.876854 -0.57679,1.361806 -0.58521,2.856584 -0.52619,4.459794 0.009,0.230008 0.0157,0.462481 0.0196,0.696513 0.0235,0.101522 0.0463,0.202885 0.069,0.30385 l 0.0114,0.04945 0.003,0.05006 c 0.0138,0.20843 0.0364,0.439823 0.0585,0.685241 -0.46051,-0.146147 -0.95745,-0.181748 -1.45051,-0.13906 -0.003,-0.241635 -0.0102,-0.485511 -0.0175,-0.731728 -0.67922,-2.925282 -1.6891,-5.877271 -3.83612,-7.815165 l -0.0455,-0.04034 -0.0369,-0.04786 c -0.32585,-0.423368 -0.96378,-0.688008 -1.50074,-0.694339 z m -5.317879,5.886842 c -0.09153,9.29e-4 -0.183497,0.0053 -0.274681,0.01342 -0.364787,0.03208 -0.719194,0.120639 -1.000021,0.262502 -0.556422,0.281077 -0.843833,0.622811 -0.746705,1.37938 0.311214,1.462767 1.523902,2.728257 2.964273,3.286735 2.250463,0.664269 4.553953,1.183522 6.841353,1.25693 0.0478,-0.477229 0.18835,-0.939641 0.41527,-1.353663 -0.19859,-0.262138 -0.39138,-0.526197 -0.58041,-0.789687 -0.21884,-0.193566 -0.43987,-0.391892 -0.6575,-0.59919 -2.02383,-1.374732 -3.9487,-2.891769 -6.149631,-3.363685 l -0.01195,-0.0022 -0.01208,-0.0032 c -0.241846,-0.06134 -0.513433,-0.0903 -0.788033,-0.08744 z m -22.325155,2.057302 c -0.534302,0.0015 -0.984233,0.2159 -1.196978,0.510169 -0.231268,2.07592 -0.14569,4.197065 0.345864,6.21443 0.281343,0.893532 0.640602,1.775112 1.030668,2.6553 -0.05853,0.01384 -0.116813,0.02873 -0.175011,0.04411 0.817624,-0.199072 1.665345,-0.255736 2.474242,0.0265 1.185792,0.568039 2.005319,1.888938 1.878427,3.223827 0.223287,1.328089 -0.738397,2.331927 -1.889895,2.784672 -0.598561,0.394167 -1.313941,0.548404 -2.023969,0.507601 -0.01713,0.04769 -0.03442,0.0953 -0.05201,0.142819 -0.08782,0.500948 -0.158219,1.012045 -0.22148,1.527346 -0.06852,2.081301 -0.92495,3.830762 -0.621132,5.442132 l 0.0022,0.0148 0.0024,0.0149 c 0.08689,0.61131 0.455641,1.34285 0.943264,1.80033 0.457332,0.42905 0.944405,0.59823 1.502304,0.45973 0.355501,-0.29386 0.514223,-0.67585 0.582968,-1.24406 0.07464,-0.61717 0.01991,-1.36897 0.07989,-2.10993 l 0.0022,-0.0208 0.0032,-0.0211 c 0.295958,-2.051479 -0.400261,-4.024469 -1.145761,-6.091376 0.382258,-0.08014 0.749566,-0.225909 1.080901,-0.444101 0.05675,-0.02233 0.112577,-0.04705 0.168281,-0.072 0.0051,0.01329 0.01002,0.02654 0.01479,0.03976 0.444412,0.970531 0.878628,1.96688 1.195396,3.049944 l 1.96e-4,7.96e-4 c 0.539561,1.673457 1.86774,3.141517 3.540512,3.568017 0.003,0.12679 0.02506,0.55087 0.195772,1.09057 0.03874,0.12255 0.07565,0.21857 0.112509,0.31632 0.03727,0.0114 0.149697,0.046 0.247782,0.0648 0.05097,0.0102 0.123809,0.0163 0.188049,0.0215 -0.0998,-0.22198 -0.186824,-0.45055 -0.259249,-0.68503 l -0.0067,-0.0234 -0.0063,-0.0239 c -0.04328,-0.18778 -0.06493,-0.37131 -0.07099,-0.55052 -0.0024,-0.0223 -0.0085,-0.0567 -0.01036,-0.076 0.0028,10e-4 0.0064,10e-4 0.0094,0.002 -0.0072,-1.04033 0.576779,-1.90875 1.357553,-2.369645 0.0096,-0.0061 0.01926,-0.01138 0.02889,-0.01673 0.05651,0.09863 0.126136,0.229439 0.204276,0.396625 0.18441,0.39458 0.172638,0.90086 0.172638,0.90086 a 0.1913345,0.19139989 0 0 0 0.0088,0.0545 c -0.354176,0.28432 -0.517992,0.65108 -0.409934,1.24584 0.0088,0.0429 0.0204,0.0928 0.03501,0.14777 0.107284,0.32403 0.251007,0.63561 0.427139,0.92914 0.0076,0.0124 0.01576,0.0264 0.02313,0.0383 0.572868,0.93501 1.467947,1.68373 2.508059,2.0674 2.257107,0.64288 4.565776,1.14169 6.854006,1.19382 0.04331,-0.47777 0.179235,-0.94176 0.402219,-1.35802 -0.221376,-0.28659 -0.435735,-0.57564 -0.645846,-0.86366 -0.100342,-0.0897 -0.200703,-0.18039 -0.300779,-0.27239 -2.097069,-1.47064 -4.152106,-3.04236 -6.485201,-3.5439 l -0.02058,-0.005 -0.02096,-0.006 c -0.09866,-0.028 -0.201744,-0.0495 -0.307698,-0.0649 -0.02657,-0.18187 -0.0885,-0.535741 -0.224446,-0.961593 -0.03731,-0.116891 -0.07676,-0.214941 -0.115681,-0.312947 -0.09779,-0.0048 -0.215662,-0.009 -0.282783,-0.0048 -0.03624,0.002 -0.08147,0.0107 -0.124987,0.01791 0.02188,0.04995 0.04355,0.100213 0.06605,0.15765 0.197625,0.502226 0.330221,1.04724 0.339933,1.64664 0.138974,0.60982 0.07403,1.18961 -0.21456,1.63021 -0.236294,0.36079 -0.582253,0.58885 -0.948011,0.725 -0.06853,-0.0994 -0.16678,-0.25184 -0.305326,-0.49612 -0.1776,-0.31319 -0.249388,-0.56698 -0.281992,-0.72164 0.233603,-0.0607 0.355922,-0.15134 0.414881,-0.24134 0.06147,-0.0939 0.119614,-0.25137 0.0179,-0.64607 l -0.02175,-0.0828 v -0.0861 c 0.0034,-1.06511 -0.545379,-1.966476 -1.224414,-2.874678 -1.000219,-1.281431 -2.653285,-2.037803 -4.064348,-3.374958 -0.253584,-0.18883 -0.527248,-0.35564 -0.815324,-0.50859 -0.0028,-3.83e-4 -0.0058,-7.96e-4 -0.0085,-0.0011 0.309079,-0.361851 0.51668,-0.794313 0.557851,-1.284627 1.133934,0.120004 2.30493,0.157962 3.47229,0.182197 1.842866,-0.251944 3.576693,-0.04864 4.731753,-0.98236 l 0.02845,-0.02235 0.03065,-0.02017 c 0.839586,-0.539001 0.8088,-1.836559 -0.03362,-2.341761 -0.593674,-0.07023 -1.204912,-0.113681 -1.813958,-0.102467 -0.661253,0.01208 -1.316105,0.07672 -1.928456,0.202565 l -0.009,0.0022 -0.009,0.0015 c -1.17251,0.207393 -2.391273,1.034681 -3.912082,1.387094 -0.21188,0.08815 -0.422001,0.174976 -0.631218,0.261122 -0.100569,-0.498293 -0.321841,-0.96979 -0.632403,-1.373447 2.00119,-1.17875 3.801567,-2.849707 5.059821,-4.688073 l 0.02769,-0.04115 0.03442,-0.0366 c 0.757088,-0.815467 1.141059,-1.88583 0.961854,-2.936003 -0.369053,-0.656032 -1.148631,-0.999111 -1.897607,-0.924992 -0.251451,0.02487 -0.496462,0.09962 -0.720597,0.219179 -1.305727,0.852636 -2.359624,2.132974 -3.116537,3.54271 -0.528431,1.196414 -1.255452,2.113455 -1.518124,3.064784 -0.03482,0.268401 -0.08419,0.528847 -0.145143,0.782366 -0.47547,-0.146905 -0.963606,-0.186673 -1.450098,-0.150351 0.133967,-1.27356 0.291527,-2.562225 0.592261,-3.852687 0.174779,-1.583594 0.162249,-3.218343 -0.227213,-4.695986 -0.17764,-0.370148 -0.69226,-0.66 -1.302581,-0.690778 -0.03631,-0.0017 -0.07235,-0.0027 -0.10799,-0.0025 z m -8.064628,3.262598 c -0.575418,-0.0066 -0.987204,0.133985 -1.292492,0.489402 -0.430699,1.556827 0.309315,3.421486 1.523069,4.570371 1.112671,0.974098 2.529666,1.4486 4.070478,1.893901 0.202455,0.0585 0.406388,0.119418 0.611048,0.182198 0.358433,0.07801 0.774248,0.149415 1.21161,0.238368 0.131795,-0.163742 0.274981,-0.318358 0.444542,-0.449443 0.04073,-0.105484 0.09833,-0.242447 0.190639,-0.328969 -0.306399,-0.729169 -0.641127,-1.440447 -1.029684,-2.116249 l -0.0076,-0.01421 -0.0074,-0.0148 c -0.778298,-1.519526 -1.885833,-2.936361 -3.217621,-3.918555 -0.701737,-0.210023 -1.522288,-0.465619 -2.23991,-0.520261 -0.08904,-0.0067 -0.174683,-0.0107 -0.256879,-0.01158 z m 38.145722,2.267186 c -1.84501,0.341676 -3.69436,0.649586 -5.55737,0.905607 h -0.001 -0.001 c -0.810676,0.109331 -1.67912,0.557404 -2.25118,1.176815 -0.554982,0.600909 -0.818893,1.31224 -0.667407,2.105369 0.142168,0.250685 0.280814,0.3587 0.482113,0.419372 0.226804,0.06835 0.568333,0.06616 0.97669,-0.01259 0.805393,-0.155471 1.773204,-0.591727 2.698894,-0.731332 1.81882,-0.462067 3.32265,-1.634698 4.89195,-2.870723 -0.19243,-0.303838 -0.33515,-0.637951 -0.42854,-0.988494 -0.0477,-0.0013 -0.0955,-0.0022 -0.14317,-0.0039 z m 1.49024,2.017338 c -0.41934,0.382285 -0.85451,0.766987 -1.32731,1.138638 v 7.92e-4 l -0.001,7.98e-4 c -1.34435,1.052086 -2.70287,1.989901 -3.19742,3.391976 l -0.003,0.01138 -0.005,0.01138 c -0.51656,1.315363 -0.44367,2.981209 0.0941,4.28769 0.31312,0.214145 0.63998,0.203642 1.1331,-0.01772 0.001,-3.84e-4 0.001,-0.0011 0.002,-0.0015 0.0442,0.138219 0.0898,0.323091 0.11131,0.550721 0.0292,0.309194 0.0476,0.595702 0.0598,0.815008 -0.7386,0.230118 -1.61413,0.215818 -2.29585,-0.381196 l -0.10835,-0.09494 -0.06,-0.130967 c -0.38577,-0.845103 -0.60457,-1.791217 -0.63852,-2.748076 -0.0626,0.02913 -0.13485,0.0639 -0.18291,0.09238 -0.0399,0.02365 -0.10185,0.06778 -0.159,0.108592 0.0148,0.132767 0.0302,0.269578 0.0581,0.45142 0.0751,0.488767 0.1218,0.786648 0.15285,0.983746 -0.5798,0.504556 -1.059763,1.142504 -1.372577,1.824466 -0.564092,1.367134 -0.557563,2.860976 -0.483501,4.463536 0.0107,0.23101 0.01926,0.46452 0.0259,0.69969 0.02404,0.10052 0.04787,0.20071 0.07122,0.30069 l 0.01138,0.0487 0.0048,0.0508 c 0.01634,0.2084 0.04086,0.43978 0.06522,0.68524 -0.461643,-0.14165 -0.958699,-0.17249 -1.451081,-0.12527 -0.0061,-0.24281 -0.01478,-0.48772 -0.02557,-0.7351 -0.706679,-2.91801 -1.74544,-5.859304 -3.910102,-7.776378 l -0.04489,-0.03958 -0.03739,-0.04786 c -0.376924,-0.480326 -1.159807,-0.75032 -1.73011,-0.665461 -0.28515,0.04244 -0.496295,0.153993 -0.630823,0.310377 -0.131186,0.152511 -0.223247,0.371184 -0.198145,0.770893 0.382909,2.383226 1.990926,4.476339 3.485933,6.606099 l 0.0028,0.003 c 0.309259,0.41434 0.612146,0.83026 0.91598,1.23953 0.243665,0.21004 0.498424,0.42474 0.753224,0.64902 1.097378,-0.39085 2.445794,-0.50223 3.448363,0.16262 l 0.230979,0.0196 0.10163,0.0322 c 0.89611,0.93789 1.64446,2.13886 1.6437,3.47701 -0.15478,1.26241 -1.07875,2.44672 -2.336816,2.77776 -0.269025,0.1491 -0.544433,0.23115 -0.819087,0.26981 0.07312,-0.005 0.146408,-0.0157 0.2197,-0.0278 0.254047,1.15443 0.607441,2.3187 0.973526,3.47488 0.730017,1.43434 1.048817,2.87203 1.954357,3.75931 l 0.0256,0.0254 0.0223,0.0277 c 0.34813,0.42278 0.97542,0.67363 1.51812,0.6429 0.53373,-0.0302 0.92691,-0.24789 1.12243,-0.81263 0.1005,-0.45374 -0.0114,-0.93826 -0.24283,-1.5246 -0.2147,-0.54248 -0.50473,-1.15781 -0.68619,-1.83534 -0.7093,-1.16667 -1.8082,-2.18855 -2.76672,-3.44141 l -0.002,-0.001 -0.001,-10e-4 c -0.20207,-0.26681 -0.41278,-0.52959 -0.62904,-0.7895 0.45065,-0.22658 0.83905,-0.56575 1.13885,-0.97247 0.11841,0.0926 0.23784,0.18354 0.35873,0.27181 l 0.0156,0.0114 0.0157,0.0138 c 1.66714,1.37756 3.70443,2.41856 5.70489,2.98762 l 0.0463,0.0138 0.0441,0.0197 c 1.0152,0.45477 2.15277,0.47501 3.08906,-0.0322 0.67137,-0.74844 0.56323,-2.01528 -0.17339,-2.70734 -1.23003,-0.96517 -2.78511,-1.55227 -4.3671,-1.81496 -1.29949,-0.11718 -2.39904,-0.50843 -3.38231,-0.45004 -0.23908,0.0477 -0.47567,0.0816 -0.71012,0.1053 0,-0.003 0.001,-0.005 0.002,-0.0102 0,-0.50342 -0.10585,-0.98737 -0.28554,-1.44525 0.94692,-0.22724 1.94528,-0.47627 3.01962,-0.53332 1.73391,-0.22276 3.4528,-0.84488 4.96827,-1.73326 0.38523,-0.26777 0.52034,-0.83332 0.37138,-1.45653 -0.14011,-0.586 -0.52832,-1.03076 -0.91715,-1.16039 -2.04007,0.42743 -4.02236,1.20625 -5.78263,2.31999 -0.71833,0.52676 -1.40389,1.11649 -2.07815,1.73427 -0.26795,-0.43534 -0.59212,-0.83898 -0.9395,-1.20256 l -0.0317,-0.0102 c 0.56903,-0.50771 1.11275,-1.03582 1.6091,-1.60054 l 0.0102,-0.0124 0.0114,-0.0114 c 1.18771,-1.22561 2.17351,-2.729589 2.67497,-4.306485 -0.0269,-0.732616 -0.0486,-1.592029 -0.22781,-2.289932 -0.17776,-0.692213 -0.45325,-1.114677 -0.94996,-1.314497 -0.18341,0.01047 -0.36594,0.0366 -0.54602,0.07695 -0.0291,-0.156776 -0.0622,-0.395145 -0.066,-0.715308 -0.003,-0.312183 0.008,-0.52373 0.0189,-0.666048 0.23042,-0.03748 0.46569,-0.05887 0.70537,-0.06232 l 0.10824,-0.0015 0.10323,0.03304 c 0.88426,0.28047 1.41799,0.971675 1.72538,1.725165 0.001,-7.95e-4 0.001,-0.0015 0.001,-0.0024 0.002,0.0094 0.008,0.02583 0.0114,0.03579 0.0733,0.184378 0.13726,0.371182 0.1851,0.557449 0.0656,0.255413 0.11347,0.514158 0.15008,0.7705 0.0542,-0.04694 0.11313,-0.09805 0.14396,-0.124836 0.0915,-0.07953 0.1455,-0.132283 0.17956,-0.167539 -0.0271,-0.138125 -0.0545,-0.278142 -0.0982,-0.451026 -0.15864,-0.626039 -0.27475,-0.939065 -0.27665,-0.944578 0.53497,-0.640781 1.01919,-1.471923 1.31898,-2.312286 0.36332,-1.378077 0.92942,-2.557878 1.24244,-3.774748 l 0.009,-0.02928 0.0102,-0.02907 c 0.0477,-0.133238 0.0871,-0.270934 0.12027,-0.412251 -0.0102,-0.04518 -0.0198,-0.09046 -0.0296,-0.135687 -0.41236,-0.158392 -0.79191,-0.417168 -1.11293,-0.750917 z m -37.475349,4.071675 c -1.981456,0.0071 -3.926342,0.252575 -5.62578,1.093927 l -0.04409,0.02155 -0.04727,0.01499 c -0.648411,0.209329 -1.322923,0.859605 -1.541853,1.445848 -0.109481,0.293123 -0.116601,0.544264 -0.03956,0.755263 0.07091,0.194189 0.237783,0.393163 0.587514,0.585345 2.349163,0.434851 4.851884,-0.402682 7.355101,-1.0969 0.531983,-0.173242 1.06339,-0.338903 1.587733,-0.508588 0.296657,-0.163392 0.599927,-0.343105 0.913011,-0.522236 -0.0074,-0.475377 0.04459,-0.972006 0.171842,-1.44822 -0.269415,-0.08441 -0.543074,-0.165866 -0.820269,-0.246283 -0.009,-0.0021 -0.0181,-0.0039 -0.02709,-0.0058 -0.687648,-0.04488 -1.381649,-0.07939 -2.072617,-0.08744 -0.132361,-0.0015 -0.264588,-0.0022 -0.396684,-0.0015 z m 3.836345,3.206418 c -0.366471,0.127425 -0.733286,0.246241 -1.097909,0.361019 -2.047349,1.36465 -4.040588,2.8437 -5.474104,4.732976 l -0.0038,0.0052 -0.0044,0.0052 c -0.467105,0.591276 -0.796317,1.545736 -0.748879,2.274496 0.02372,0.36439 0.127948,0.6618 0.304932,0.88286 0.17112,0.21375 0.423537,0.37999 0.855068,0.47101 1.484641,0.0996 3.025951,-0.62844 3.9896,-1.81082 1.334106,-1.93051 2.54851,-3.956603 3.333466,-6.106819 -0.437332,-0.194228 -0.831929,-0.47122 -1.15387,-0.815205 z m 21.182549,13.310721 c -1.841758,0.35909 -3.688059,0.6842 -5.548657,0.95764 h -7.94e-4 -7.96e-4 c -0.809639,0.11682 -1.674564,0.57299 -2.240702,1.19777 -0.549232,0.60615 -0.806185,1.31964 -0.647233,2.11133 0.144579,0.24952 0.284731,0.35701 0.486661,0.41581 0.227435,0.0661 0.569294,0.0601 0.976881,-0.0225 0.80417,-0.16311 1.767544,-0.60835 2.692166,-0.75644 1.790578,-0.47313 3.267674,-1.63522 4.803344,-2.86797 0.01887,-0.0175 0.03784,-0.0362 0.05675,-0.0543 -0.193267,-0.30043 -0.337626,-0.63113 -0.433666,-0.97841 -0.04799,-6.7e-4 -0.09598,-0.001 -0.143958,-0.001 z m 1.494393,1.98669 c -0.06581,0.0542 -0.131545,0.10815 -0.197745,0.16213 -0.01949,0.0196 -0.03913,0.0369 -0.05852,0.0552 l -0.0011,0.001 c -1.144471,1.20541 -2.527142,1.96349 -3.41632,3.01078 l -7.94e-4,0.001 -0.0014,6.7e-4 c -1.126255,1.3154 -1.357416,3.18551 -0.94623,4.91872 l 0.01713,0.0742 7.96e-4,0.0754 c 0.0034,0.39295 0.09625,0.52927 0.175596,0.60277 0.07935,0.0733 0.216432,0.12845 0.458185,0.1261 0.483513,-0.003 1.255269,-0.33421 1.640531,-0.66605 l 0.0022,-10e-4 0.0015,-0.001 c 0.911341,-0.77288 1.509066,-1.70741 2.045723,-2.89546 0.400868,-1.16497 0.676092,-2.39283 1.227031,-3.63448 0.09919,-0.30489 0.169972,-0.62216 0.222667,-0.94875 -0.0082,-0.0398 -0.01615,-0.0798 -0.0243,-0.11968 -0.424251,-0.15649 -0.815073,-0.4197 -1.144972,-0.76079 z" />
    <path
       style="color:#000000;fill:#000000;stroke:#ffffff;stroke-width:0.35;stroke-miterlimit:4;stroke-dasharray:none"
       d="m 75.727823,78.529913 c -0.941964,3.04e-4 -1.932572,0.362076 -2.429158,1.258513 l -0.06348,0.114338 -0.01563,0.130166 c -0.190089,1.570775 -0.204742,3.173626 -0.01603,4.75513 -0.663335,-0.861949 -1.437472,-1.644386 -2.320394,-2.279646 l -0.09195,-0.06566 -0.10758,-0.03224 c -0.701643,-0.209264 -1.661622,-0.527274 -2.650242,-0.602551 -0.988619,-0.07528 -2.11874,0.135648 -2.811013,1.076521 l -0.06426,0.08822 -0.03361,0.103264 c -0.721211,2.230091 0.296035,4.618498 1.872096,6.102267 l 0.0083,0.0075 0.0089,0.0083 c 0.454867,0.39961 0.939893,0.723385 1.44219,0.994824 -1.623823,0.107772 -3.247244,0.429178 -4.765768,1.165933 -1.080474,0.355451 -1.980724,1.202708 -2.368646,2.241468 -0.19512,0.522485 -0.24957,1.118704 -0.04331,1.683623 0.206263,0.564919 0.670419,1.052415 1.325912,1.376412 l 0.07931,0.03957 0.08583,0.01721 c 2.065916,0.412621 4.081718,10e-4 5.977974,-0.518082 -0.987921,0.822389 -1.91438,1.73244 -2.707985,2.77676 -0.683169,0.866024 -1.107666,2.040157 -1.032847,3.189607 0.03745,0.5753 0.213276,1.15522 0.595622,1.63279 0.382346,0.47757 0.96631,0.82348 1.683839,0.96159 l 0.03738,0.008 0.03817,0.002 c 1.994069,0.15343 3.941434,-0.78492 5.180844,-2.31465 l 0.0166,-0.0202 0.01405,-0.0209 c 0.529775,-0.76568 1.053242,-1.5534 1.546005,-2.36609 -0.202947,0.97722 -0.354767,2.01825 -0.147521,3.136 0.137808,0.94602 0.615046,1.88787 1.348259,2.57578 0.736782,0.69127 1.82181,1.11498 2.935791,0.75507 l 0.09651,-0.0315 0.08206,-0.0575 c 0.816272,-0.57292 1.119863,-1.46587 1.216754,-2.26678 0.09596,-0.79319 0.03935,-1.56434 0.08404,-2.14512 0.03901,-0.27586 0.06372,-0.54828 0.07594,-0.81779 0.818807,0.96066 1.901827,1.69531 3.178825,2.00587 0.195686,0.0846 0.404233,0.15921 0.621527,0.22017 -0.04886,-0.12255 -0.101274,-0.26592 -0.154441,-0.43401 -0.1707,-0.53969 -0.192725,-0.96375 -0.195773,-1.09056 -1.672772,-0.4265 -3.000951,-1.89458 -3.54051,-3.568039 L 79.7202,98.32468 c -0.31677,-1.083063 -0.750985,-2.079415 -1.195397,-3.049948 -0.005,-0.01326 -0.0098,-0.0265 -0.01483,-0.03976 -0.05571,0.02495 -0.111529,0.04969 -0.168285,0.072 -0.331332,0.218192 -0.698641,0.363969 -1.080899,0.444099 0.745501,2.066911 1.441718,4.039902 1.145762,6.091389 l -0.003,0.0209 -0.0024,0.0208 c -0.05998,0.74094 -0.0052,1.49275 -0.07989,2.10992 -0.06875,0.56822 -0.227467,0.9502 -0.582966,1.24406 -0.557898,0.1385 -1.044974,-0.0306 -1.502304,-0.45973 -0.487622,-0.45748 -0.856378,-1.18903 -0.943266,-1.80032 l -0.0022,-0.015 -0.0024,-0.0148 c -0.303824,-1.61139 0.552613,-3.36084 0.621132,-5.442146 0.06327,-0.515302 0.13366,-1.026399 0.22148,-1.527347 0.02087,-0.05645 0.04137,-0.113043 0.0617,-0.169728 -0.464034,-0.042 -0.922018,-0.168685 -1.340743,-0.370511 -0.783996,2.176733 -2.010732,4.226201 -3.359569,6.178022 -0.963649,1.18238 -2.504962,1.91044 -3.9896,1.81081 -0.431535,-0.0911 -0.683947,-0.25725 -0.85507,-0.47099 -0.176989,-0.22107 -0.281212,-0.51848 -0.304929,-0.88285 -0.04743,-0.72877 0.281772,-1.68324 0.748877,-2.274507 l 0.0046,-0.0051 0.0038,-0.0053 c 1.433519,-1.889275 3.426757,-3.36832 5.474107,-4.732976 0.401694,-0.126449 0.80601,-0.257346 1.209633,-0.399789 -0.299496,-0.325732 -0.531637,-0.712032 -0.664042,-1.151296 -0.0058,-0.0991 -0.0081,-0.199983 -0.0088,-0.301672 -0.360002,0.203476 -0.705639,0.410714 -1.043524,0.596814 -0.524345,0.169685 -1.055748,0.335345 -1.587733,0.508588 -2.503215,0.694217 -5.005941,1.531752 -7.355103,1.096898 -0.349733,-0.192181 -0.516608,-0.391143 -0.587512,-0.585342 -0.07703,-0.210995 -0.06992,-0.462143 0.03955,-0.755265 0.218932,-0.586244 0.893442,-1.23652 1.541855,-1.445846 l 0.04726,-0.01503 0.04409,-0.02156 c 1.81274,-0.897444 3.9047,-1.117022 6.022468,-1.092347 0.690966,0.0081 1.384963,0.04255 2.072614,0.08744 0.009,0.002 0.01813,0.0039 0.02709,0.0057 0.316317,0.09177 0.628429,0.18448 0.934368,0.281889 0.123374,-0.4875 0.325594,-0.951363 0.625879,-1.339816 -0.472066,-0.09829 -0.920971,-0.173541 -1.30515,-0.257162 -0.20466,-0.06277 -0.408589,-0.123677 -0.611045,-0.18219 -1.540815,-0.4453 -2.957807,-0.919805 -4.070481,-1.893903 -1.213753,-1.14888 -1.953763,-3.013541 -1.523067,-4.570369 0.348904,-0.40619 0.837018,-0.531971 1.549368,-0.47773 0.717625,0.05464 1.538174,0.310236 2.239912,0.52026 1.331787,0.982195 2.439326,2.399035 3.217585,3.918562 l 0.0074,0.01483 0.0075,0.01424 c 0.40524,0.704814 0.752406,1.447918 1.06943,2.210014 0.06166,-0.108193 0.147817,-0.199315 0.28041,-0.197027 0.375237,-0.149908 0.766583,-0.280997 1.16514,-0.375259 -0.390072,-0.880193 -0.749324,-1.761769 -1.030672,-2.655301 -0.49156,-2.017369 -0.577128,-4.13851 -0.345863,-6.214429 0.22693,-0.313891 0.723761,-0.536923 1.304949,-0.5076 0.610318,0.03079 1.124929,0.320634 1.302577,0.690778 0.389463,1.477643 0.401999,3.112395 0.227215,4.695985 -0.300732,1.290464 -0.458299,2.579131 -0.592261,3.852689 0.48649,-0.03632 0.974632,0.0035 1.4501,0.15034 0.06095,-0.25352 0.1103,-0.51396 0.145147,-0.782367 0.262671,-0.951324 0.98969,-1.868371 1.518125,-3.064782 0.756911,-1.409739 1.810812,-2.690073 3.116534,-3.542711 0.224137,-0.119555 0.46915,-0.194299 0.7206,-0.219181 0.748978,-0.07411 1.528552,0.268965 1.897607,0.924993 0.179204,1.050174 -0.204765,2.120537 -0.961856,2.936004 l -0.03441,0.0366 -0.02769,0.04115 c -1.258256,1.838365 -3.058631,3.509327 -5.059821,4.688071 0.310562,0.403659 0.531843,0.875155 0.632402,1.373446 0.209224,-0.08614 0.41934,-0.172984 0.631218,-0.26112 1.52081,-0.352414 2.739572,-1.179703 3.912082,-1.387094 l 0.0089,-0.0014 0.0089,-0.0024 c 0.612351,-0.125861 1.267204,-0.190402 1.928456,-0.202565 0.609048,-0.01116 1.220281,0.03222 1.813957,0.102467 0.842415,0.505203 0.87318,1.80276 0.03361,2.341762 l -0.03065,0.02017 -0.02847,0.02236 c -1.155061,0.933712 -2.888886,0.730417 -4.731755,0.98236 -1.167361,-0.02423 -2.338357,-0.06219 -3.472287,-0.182191 -0.04117,0.490316 -0.248773,0.922777 -0.557852,1.284625 0.0028,3.04e-4 0.0057,6.08e-4 0.0084,0.001 0.288077,0.152949 0.561739,0.319761 0.815322,0.508587 1.411064,1.33716 3.064132,2.093527 4.064349,3.37496 0.679038,0.908202 1.227809,1.809565 1.224861,2.874675 v 0.0861 l 0.02175,0.083 c 0.101628,0.39469 0.04349,0.55219 -0.01799,0.64605 -0.05896,0.0901 -0.181277,0.1807 -0.414879,0.24135 0.03262,0.15468 0.104393,0.40844 0.28199,0.72164 0.138537,0.24428 0.236794,0.39679 0.305326,0.49611 0.365763,-0.13614 0.711714,-0.3642 0.948013,-0.72498 0.288576,-0.44062 0.353526,-1.0204 0.214557,-1.63023 -0.02405,-1.485513 -0.783054,-2.651472 -1.494789,-3.60264 l -0.0038,-0.0051 -0.0046,-0.0046 C 84.64426,96.148561 83.3316,95.389872 82.235916,94.565749 c 0.499814,0.02006 0.997036,0.0324 1.488858,0.04253 l 0.05518,8.11e-4 0.05457,-0.0075 c 1.582745,-0.229116 3.725673,0.105882 5.439698,-1.259107 1.680807,-1.118037 1.578376,-3.766069 -0.243628,-4.693809 l -0.103221,-0.05222 -0.114299,-0.01503 c -0.702548,-0.0912 -1.434144,-0.136642 -2.166743,-0.123243 -0.729332,0.01334 -1.459205,0.0863 -2.162986,0.230261 -0.338523,0.06042 -0.661864,0.147822 -0.972929,0.250239 0.816509,-0.786056 1.550066,-1.643684 2.173071,-2.547293 1.011622,-1.108365 1.575448,-2.638562 1.254326,-4.188979 l -0.01799,-0.08525 -0.03875,-0.07775 c -0.625795,-1.254595 -1.975518,-1.86488 -3.275921,-1.726946 -0.433468,0.04598 -0.860925,0.174687 -1.25492,0.390888 l -0.02155,0.01208 -0.02017,0.01344 c -1.521016,0.984952 -2.690565,2.41039 -3.532005,3.944676 0.112599,-1.491867 0.06063,-3.046358 -0.344086,-4.53239 l -0.01266,-0.04629 -0.01879,-0.04411 c -0.436903,-1.007952 -1.490628,-1.466054 -2.485912,-1.516269 -0.06221,-0.0031 -0.124669,-0.0048 -0.187466,-0.0048 z"
       id="path1165" />
    <path
       style="color:#000000;fill:#ffcc00;fill-opacity:1;stroke:#ffff00;stroke-width:0;stroke-miterlimit:4;stroke-dasharray:none"
       d="m 74.243116,90.057224 c -1.021405,0.789637 -1.330067,2.246503 -1.258389,3.469158 0.623254,2.067699 3.440858,2.975388 5.222081,1.802402 1.151495,-0.452745 2.1131,-1.45641 1.889811,-2.784499 0.126893,-1.334893 -0.692548,-2.655961 -1.87834,-3.224 -1.188675,-0.414758 -2.466428,-0.126555 -3.599163,0.325971 -0.219701,-0.0038 -0.313105,0.248076 -0.376,0.410968 z"
       id="path1141" />
    <path
       style="color:#000000;fill:#000000;stroke:#ffff00;stroke-width:0;stroke-miterlimit:4;stroke-dasharray:none"
       d="m 77.372819,88.463523 c -1.062006,-0.08774 -2.100154,0.200332 -3.002308,0.560742 l 0.260096,-0.04785 c -0.36721,-0.0064 -0.674997,0.241908 -0.804949,0.425416 -0.09214,0.130113 -0.114113,0.21049 -0.146493,0.293829 -1.132849,1.006419 -1.439411,2.570867 -1.363256,3.869868 l 0.0052,0.0785 0.02242,0.07551 c 0.761689,2.526966 3.98484,3.580425 6.169043,2.199605 0.649322,-0.266182 1.255576,-0.674604 1.689873,-1.251578 0.438643,-0.582745 0.674856,-1.356198 0.552328,-2.181659 0.09753,-1.600256 -0.841676,-3.09627 -2.247432,-3.76968 l -0.03363,-0.01645 -0.03514,-0.01195 C 78.08344,88.563888 77.726819,88.492766 77.372816,88.463522 Z M 76.472202,89.8265 c 0.519251,-0.06616 1.024007,-0.03377 1.494053,0.124113 0.908163,0.457102 1.559219,1.522182 1.46341,2.530067 l -0.0082,0.08823 0.01496,0.08672 c 0.08099,0.481716 -0.0398,0.85472 -0.304192,1.205969 -0.26439,0.351248 -0.692413,0.655408 -1.170429,0.843356 l -0.06502,0.02616 -0.0583,0.03814 c -1.358091,0.894344 -3.650838,0.161237 -4.174231,-1.377929 -0.04044,-1.055971 0.252521,-2.235071 0.988064,-2.803709 l 0.147985,-0.114388 0.06727,-0.174951 c 0.0091,-0.02367 0.0064,-0.01564 0.01421,-0.03365 0.526819,-0.209503 1.064994,-0.371167 1.590467,-0.438126 z"
       id="path1143" />
    <path
       style="color:#000000;fill:#000000;stroke:#ffffff;stroke-width:0.35;stroke-miterlimit:4;stroke-dasharray:none"
       d="m 103.62891,93.42951 -0.10835,0.0014 c -0.23968,0.0035 -0.47496,0.02483 -0.70537,0.06231 -0.0114,0.142316 -0.0225,0.353867 -0.0188,0.66605 0.003,0.320162 0.0371,0.558524 0.0662,0.715306 0.18006,-0.04035 0.3624,-0.06643 0.54579,-0.07696 0.49674,0.199813 0.77223,0.622282 0.94999,1.314495 0.17923,0.697898 0.20112,1.557319 0.22801,2.289932 -0.50147,1.576894 -1.48727,3.080867 -2.67497,4.306477 l -0.0114,0.0114 -0.0102,0.0127 c -0.49634,0.56471 -1.04004,1.09282 -1.60909,1.60053 l 0.0316,0.0102 c 0.34738,0.36357 0.67175,0.76721 0.93971,1.20253 0.67424,-0.61776 1.35981,-1.20747 2.07816,-1.73426 1.76024,-1.11373 3.74253,-1.89256 5.78259,-2.32001 0.38886,0.12963 0.77689,0.5744 0.91697,1.1604 0.14895,0.62322 0.0138,1.18876 -0.37138,1.45652 -1.51545,0.88841 -3.23435,1.51053 -4.96826,1.73329 -1.07437,0.057 -2.07252,0.30608 -3.01944,0.5333 0.17974,0.45789 0.28564,0.94185 0.28535,1.44525 -4.1e-4,0.003 -10e-4,0.006 -10e-4,0.0102 0.23447,-0.0237 0.47105,-0.0575 0.71012,-0.10519 0.98327,-0.0584 2.08283,0.33291 3.38232,0.45004 1.58198,0.2627 3.13705,0.84979 4.36709,1.81497 0.73667,0.69205 0.8448,1.9589 0.17343,2.70733 -0.93631,0.50724 -2.07383,0.487 -3.08904,0.0322 l -0.044,-0.0196 -0.0463,-0.0134 c -2.00047,-0.56907 -4.03774,-1.61005 -5.70489,-2.98762 l -0.0158,-0.0127 -0.0156,-0.0124 c -0.12087,-0.0883 -0.24031,-0.17911 -0.35872,-0.27181 -0.2998,0.40672 -0.6882,0.7459 -1.13885,0.97248 0.21627,0.25992 0.42697,0.52268 0.62904,0.78949 l 8.1e-4,0.001 0.002,0.001 c 0.95851,1.25285 2.05743,2.27472 2.76671,3.44142 0.18148,0.67751 0.4715,1.29285 0.68619,1.83535 0.23203,0.5863 0.34322,1.07082 0.24285,1.52457 -0.19553,0.56474 -0.58873,0.78242 -1.12244,0.81265 -0.5427,0.0307 -1.16999,-0.22012 -1.51812,-0.64291 l -0.0223,-0.0277 -0.0255,-0.0255 c -0.90554,-0.88726 -1.22434,-2.32477 -1.954358,-3.75911 -0.366088,-1.15618 -0.719476,-2.32044 -0.973519,-3.47486 -0.482182,0.0865 -0.963424,0.0114 -1.406201,-0.18239 0.01272,0.0647 0.02603,0.12928 0.03936,0.19385 -0.0527,0.32658 -0.123474,0.64387 -0.222666,0.94874 -0.550941,1.24166 -0.826161,2.46953 -1.227037,3.63449 -0.536655,1.18804 -1.134381,2.12277 -2.045721,2.89565 l -0.0014,10e-4 -0.0024,0.002 c -0.385263,0.33184 -1.157019,0.66121 -1.640532,0.66605 -0.241755,0.002 -0.378822,-0.0527 -0.458187,-0.1262 -0.07936,-0.0734 -0.172317,-0.20982 -0.1756,-0.60276 l -8.11e-4,-0.0754 -0.01721,-0.0742 c -0.411184,-1.73322 -0.180021,-3.60335 0.946233,-4.91874 l 0.0016,-8e-4 8.09e-4,-10e-4 c 0.889178,-1.04728 2.271838,-1.80537 3.416323,-3.0108 l 0.0011,-0.001 c 0.01938,-0.0187 0.03907,-0.0369 0.05854,-0.0554 0.09341,-0.0765 0.186238,-0.15258 0.279024,-0.22888 -0.05201,-0.056 -0.102572,-0.11372 -0.15108,-0.17328 -0.306858,-0.23564 -0.559044,-0.52655 -0.757381,-0.85141 -0.04895,0.0468 -0.0976,0.0935 -0.146335,0.14025 -1.535662,1.23277 -3.012763,2.39482 -4.80334,2.86796 -0.924621,0.14812 -1.887997,0.59335 -2.692163,0.75645 -0.407594,0.0827 -0.74945,0.0888 -0.976884,0.0225 -0.201933,-0.0587 -0.342083,-0.16628 -0.486662,-0.41582 -0.158948,-0.79166 0.09801,-1.50516 0.647235,-2.1113 0.566139,-0.6248 1.431062,-1.08091 2.240701,-1.19779 h 8.1e-4 8.1e-4 c 1.860599,-0.27344 3.7069,-0.59852 5.548659,-0.95763 0.09369,0.002 0.187379,0.003 0.281199,0.005 -0.127465,-0.44984 -0.172542,-0.92531 -0.133086,-1.39125 -0.003,5e-4 -0.006,9.1e-4 -0.0089,10e-4 -2.328539,-0.0366 -4.679576,-0.54217 -6.977204,-1.1966 -1.396829,-0.51526 -2.533032,-1.68831 -2.976923,-3.08773 -0.145204,-0.65318 0.02034,-1.04103 0.393522,-1.3406 a 0.1913345,0.19139989 0 0 1 -0.0088,-0.0547 c 0,0 0.01183,-0.50628 -0.172636,-0.90086 -0.07815,-0.167179 -0.147774,-0.297991 -0.204274,-0.396618 -0.0096,0.0056 -0.01928,0.01116 -0.02886,0.01681 -0.932562,0.550498 -1.588057,1.681418 -1.285573,2.993568 l 0.0061,0.0239 0.0067,0.0233 c 0.568549,1.84081 2.012628,3.3262 3.822107,3.98781 l 0.02313,0.009 0.02313,0.006 c 0.928682,0.26504 1.877411,0.51616 2.841071,0.7262 -0.447459,0.0718 -0.895359,0.14099 -1.343907,0.20691 -1.144128,0.16556 -2.248508,0.7498 -3.039808,1.62309 -0.791677,0.87371 -1.262974,2.09451 -0.961854,3.38545 l 0.01799,0.077 0.03519,0.0705 c 0.303954,0.60882 0.816857,1.02145 1.365462,1.18117 0.548605,0.15971 1.097074,0.10928 1.617395,0.003 1.040641,-0.21104 2.066174,-0.66011 2.66448,-0.75071 l 0.03441,-0.005 0.03361,-0.009 c 0.06702,-0.0174 0.133287,-0.0359 0.199332,-0.0545 -0.937735,1.57809 -1.065426,3.49342 -0.670373,5.22317 0.02083,0.61165 0.224469,1.14511 0.603335,1.49589 0.395041,0.36575 0.908663,0.4878 1.381085,0.48306 0.943886,-0.0102 1.852301,-0.43316 2.498566,-0.98908 1.105241,-0.93786 1.824387,-2.08497 2.40958,-3.38544 l 0.01285,-0.0269 0.0097,-0.0286 c 0.314315,-0.90641 0.542113,-1.77722 0.824024,-2.60148 0.142073,0.48117 0.290801,0.95729 0.439796,1.42765 l 0.01799,0.0561 0.02689,0.0521 c 0.632001,1.21057 0.943672,2.87498 2.211437,4.14507 0.65412,0.78377 1.64538,1.17237 2.61149,1.11765 0.97241,-0.055 1.97326,-0.65106 2.33403,-1.75385 l 0.009,-0.0255 0.006,-0.0253 c 0.21167,-0.87384 -0.0276,-1.67672 -0.29899,-2.36273 -0.27149,-0.68603 -0.57976,-1.29901 -0.6943,-1.82051 l -0.0239,-0.10849 -0.0575,-0.0941 c -0.26312,-0.43505 -0.55659,-0.83699 -0.86218,-1.21855 1.01586,0.52333 2.0729,0.94294 3.12978,1.24704 1.37451,0.60182 3.00277,0.64718 4.3671,-0.15568 l 0.0747,-0.0441 0.0612,-0.0613 c 1.3151,-1.3283 1.13261,-3.50666 -0.19281,-4.72129 l -0.0181,-0.0164 -0.0185,-0.0158 c -1.41806,-1.1213 -3.13939,-1.77017 -4.85831,-2.07471 1.39371,-0.34726 2.73534,-0.90847 3.95698,-1.62843 l 0.0178,-0.0102 0.0172,-0.0124 c 0.97403,-0.65882 1.17026,-1.87744 0.92904,-2.88674 -0.24124,-1.0093 -0.92392,-1.9912 -2.03288,-2.21615 l -0.1315,-0.0261 -0.13229,0.0255 c -1.56439,0.31012 -3.09569,0.81886 -4.53836,1.51192 0.60306,-0.90592 1.09523,-1.89125 1.41272,-2.932442 l 0.0329,-0.107817 -0.005,-0.112758 c -0.0276,-0.731906 -0.0352,-1.742942 -0.28179,-2.703569 -0.24669,-0.960628 -0.81048,-1.963147 -1.92371,-2.316242 z"
       id="path1203" />
    <path
       style="color:#000000;fill:#000000;stroke:#ffffff;stroke-width:0.35;stroke-miterlimit:4;stroke-dasharray:none"
       d="m 92.379336,93.211514 c -0.170944,-0.0022 -0.341415,0.0091 -0.509207,0.03403 -0.536929,0.07989 -1.067522,0.318272 -1.448517,0.761202 -0.380994,0.442931 -0.572758,1.07237 -0.51929,1.771849 l 0.0014,0.02611 0.0046,0.02632 c 0.310292,1.983629 1.280542,3.679902 2.33839,5.235835 -1.24697,-0.78188 -2.58867,-1.457334 -4.094802,-1.786299 -0.337519,-0.0947 -0.687837,-0.146384 -1.038979,-0.153704 0.05138,0.122146 0.104325,0.261246 0.154049,0.417 0.135939,0.425849 0.197875,0.779723 0.224445,0.961593 0.105953,0.0154 0.209045,0.0369 0.3077,0.0649 l 0.02097,0.006 0.02097,0.005 c 2.333097,0.50154 4.38813,2.07326 6.485201,3.54389 0.100068,0.092 0.200428,0.18259 0.300777,0.2724 0.232736,0.31903 0.470217,0.63941 0.717239,0.95625 0.215971,-0.44518 0.53009,-0.83974 0.947023,-1.13764 0.04092,-0.0167 0.0832,-0.032 0.124978,-0.0478 -0.261304,-0.23054 -0.522904,-0.45062 -0.772807,-0.66605 -0.303832,-0.40925 -0.606716,-0.82516 -0.915975,-1.23952 l -0.003,-0.005 c -1.495007,-2.12977 -3.103021,-4.222881 -3.48593,-6.606108 -0.02511,-0.399712 0.06697,-0.618382 0.198145,-0.770895 0.134525,-0.156393 0.34567,-0.267945 0.630821,-0.310376 0.570301,-0.08486 1.353187,0.18513 1.730112,0.665458 l 0.03738,0.04787 0.04489,0.03957 c 2.164657,1.917077 3.203418,4.858371 3.910105,7.776391 0.0107,0.24735 0.01969,0.4923 0.02551,0.73509 0.492383,-0.0473 0.989439,-0.0164 1.451087,0.12522 -0.02441,-0.24545 -0.04883,-0.47683 -0.06526,-0.68525 l -0.0043,-0.0508 -0.01138,-0.0487 c -0.02331,-0.10007 -0.04712,-0.20017 -0.07118,-0.30069 -0.0067,-0.23515 -0.01524,-0.46867 -0.02591,-0.69968 -0.07406,-1.60257 -0.08059,-3.096406 0.483499,-4.463541 0.312817,-0.681961 0.79278,-1.319914 1.37259,-1.824468 -0.031,-0.1971 -0.0777,-0.494978 -0.15286,-0.983745 -0.035,-0.227735 -0.0573,-0.412118 -0.0728,-0.565361 -1.04243,0.697515 -1.869974,1.726152 -2.372603,2.829379 l -0.0046,0.01036 -0.0046,0.01047 c -0.230672,0.556255 -0.380994,1.116753 -0.476576,1.6767 -0.696481,-1.66744 -1.650794,-3.23707 -3.048115,-4.492233 -0.543777,-0.668309 -1.323231,-1.056535 -2.125611,-1.142394 -0.102367,-0.01093 -0.205132,-0.0171 -0.307699,-0.0184 z"
       id="path1165-6" />
    <g
       id="path869-4"
       style="stroke:#ffff00;stroke-width:0;stroke-miterlimit:4;stroke-dasharray:none"
       transform="matrix(0.382669,0,0,0.3827998,56.942627,58.925143)">
      <path
         style="color:#000000;fill:#ffcc00;fill-opacity:1;stroke:#ffff00;stroke-width:0;stroke-miterlimit:4;stroke-dasharray:none"
         d="m 112.11298,118.56893 c -2.81168,-1.86389 -6.67468,-1.40358 -9.63871,-0.19894 -4.604062,3.28847 -4.467027,11.05892 -0.0313,14.46407 2.12862,2.61607 5.59501,3.94412 8.72783,2.20836 3.28761,-0.86479 5.70233,-3.95841 6.10682,-7.25625 0.002,-3.4957 -1.95382,-6.63316 -4.29557,-9.08323 0,0 -0.26551,-0.0843 -0.26551,-0.0843 0,0 -0.60352,-0.0498 -0.60352,-0.0498 z"
         id="path1180" />
      <path
         style="color:#000000;fill:#000000;stroke:#ffff00;stroke-width:0;stroke-miterlimit:4;stroke-dasharray:none"
         d="m 107.36328,115.54492 c -1.96002,0.0345 -3.89317,0.53024 -5.54883,1.20313 l -0.18945,0.0781 -0.16797,0.11914 c -5.590186,3.99282 -5.49824,12.79745 -0.30273,17.05664 2.5125,3.03099 6.84698,4.66855 10.72461,2.61524 3.92338,-1.16465 6.65543,-4.7092 7.13476,-8.61719 l 0.0137,-0.10547 v -0.10742 c 0.002,-4.14904 -2.25823,-7.65529 -4.77929,-10.29297 l -0.31055,-0.32422 -0.88086,-0.27929 -0.57812,-0.0488 c -1.61747,-0.9052 -3.36689,-1.32767 -5.11524,-1.29688 z m -0.0254,3.54688 c 1.4154,-0.0308 2.76569,0.24419 3.80859,0.93554 l 0.375,0.24805 0.44727,0.0371 0.043,0.004 c 1.96183,2.16028 3.46178,4.71014 3.5,7.35937 -0.35863,2.55639 -2.32256,5.02554 -4.78711,5.67383 l -0.21094,0.0566 -0.1914,0.10547 c -2.32315,1.28715 -4.7969,0.33827 -6.52149,-1.78125 l -0.1289,-0.16016 -0.16407,-0.125 c -3.38088,-2.5954 -3.50486,-8.91291 -0.12695,-11.50781 1.24967,-0.47837 2.6251,-0.8167 3.95703,-0.8457 z"
         id="path1182" />
    </g>
    <path
       style="color:#000000;fill:#000000;stroke:#ffffff;stroke-width:0.35;stroke-miterlimit:4;stroke-dasharray:none"
       d="m 103.38193,70.581616 c -0.13654,0.0014 -0.27256,0.01138 -0.40697,0.03007 -0.53766,0.07484 -1.07069,0.308418 -1.45584,0.74775 -0.38513,0.43933 -0.58359,1.066753 -0.53669,1.766705 l 0.002,0.02611 0.004,0.02612 c 0.29245,1.99182 1.25104,3.701431 2.29746,5.270841 -1.24341,-0.803567 -2.58371,-1.518395 -4.115175,-1.849393 -0.479568,-0.120428 -0.992787,-0.165069 -1.50171,-0.120465 -0.512464,0.04491 -1.019702,0.178753 -1.482728,0.412647 -0.926043,0.467788 -1.648282,1.493159 -1.473235,2.773794 l 0.003,0.02175 0.0046,0.02175 c 0.411159,2.010545 1.971478,3.59397 3.822303,4.304107 l 0.02453,0.0091 0.02551,0.0074 c 0.926303,0.273952 1.872785,0.534126 2.834545,0.753288 -0.4479,0.06751 -0.89606,0.132367 -1.3449,0.194058 -1.146068,0.15458 -2.257082,0.729456 -3.05701,1.595594 -0.799926,0.866139 -1.282253,2.081794 -0.993296,3.375555 l 0.01721,0.07715 0.03441,0.07101 c 0.298219,0.611648 0.807305,1.028359 1.354388,1.193234 0.547082,0.164874 1.095903,0.120016 1.617197,0.01939 1.042591,-0.20125 2.072851,-0.640984 2.672001,-0.725989 l 0.0344,-0.0046 0.0336,-0.0081 c 0.0663,-0.01656 0.13228,-0.03408 0.19773,-0.05204 -0.18311,0.30003 -0.34157,0.623666 -0.46667,0.976031 -0.68812,1.763727 -0.57598,3.83186 0.18746,5.504264 l 0.0599,0.130957 0.10836,0.09494 c 0.68173,0.597015 1.55727,0.611318 2.29588,0.381195 -0.0124,-0.219306 -0.0305,-0.505815 -0.0598,-0.815008 -0.0215,-0.227633 -0.0673,-0.412503 -0.11132,-0.550722 -0.001,5.05e-4 -0.001,10e-4 -0.002,0.0014 -0.49313,0.221446 -0.81999,0.231944 -1.13313,0.0178 -0.53779,-1.30648 -0.61068,-2.972321 -0.0941,-4.287687 l 0.005,-0.01138 0.003,-0.01138 c 0.49453,-1.40207 1.85305,-2.339884 3.19741,-3.391972 l 8.1e-4,-8.09e-4 v -8.11e-4 c 0.50206,-0.394643 0.9624,-0.804102 1.4056,-1.209653 -0.0558,-0.06053 -0.10949,-0.123005 -0.16116,-0.187727 -0.30037,-0.235165 -0.54692,-0.523697 -0.74097,-0.844878 -0.009,0.008 -0.0169,0.01615 -0.0253,0.02413 -1.5945,1.256033 -3.11567,2.456436 -4.96134,2.92532 -0.9257,0.139604 -1.893495,0.575865 -2.6989,0.731332 -0.408354,0.07882 -0.749878,0.08101 -0.976686,0.01267 -0.201302,-0.06068 -0.339937,-0.16869 -0.482114,-0.419375 -0.151482,-0.793129 0.112429,-1.504456 0.667406,-2.105368 0.572059,-0.61941 1.440499,-1.067471 2.251184,-1.176816 h 8.1e-4 8.1e-4 c 1.86302,-0.25602 3.71236,-0.56393 5.55737,-0.905606 0.0937,0.0034 0.18721,0.0058 0.281,0.0077 -0.12326,-0.450695 -0.16382,-0.926357 -0.12026,-1.391644 -2.33092,-0.05714 -4.67993,-0.583985 -6.97386,-1.261085 -1.440367,-0.558477 -2.653055,-1.823967 -2.964268,-3.286734 -0.09713,-0.756569 0.190283,-1.098305 0.746702,-1.379378 0.280829,-0.141862 0.635234,-0.230418 1.000022,-0.262505 0.364786,-0.03208 0.740249,-0.0079 1.062707,0.07398 l 0.01208,0.003 0.01183,0.0024 c 2.200927,0.471915 4.125817,1.988953 6.149637,3.363685 0.21764,0.207298 0.43865,0.405619 0.65751,0.599188 0.21142,0.294721 0.42724,0.590207 0.65099,0.882859 0.22017,-0.443375 0.53785,-0.835254 0.95771,-1.129339 0.0414,-0.01642 0.0845,-0.03145 0.12676,-0.04707 -0.24845,-0.222124 -0.49886,-0.431394 -0.74058,-0.634598 -0.309,-0.424059 -0.61652,-0.855537 -0.93101,-1.285219 l -8.1e-4,-8.11e-4 c -1.47577,-2.145196 -3.06489,-4.254538 -3.42542,-6.6429 -0.0212,-0.399273 0.0724,-0.616786 0.20487,-0.767926 0.13599,-0.155122 0.34826,-0.264499 0.63379,-0.304244 0.57107,-0.0795 1.35101,0.197234 1.7234,0.681084 l 0.0368,0.04787 0.0454,0.04036 c 2.14703,1.937894 3.15689,4.889886 3.83613,7.815166 0.009,0.24622 0.0147,0.490089 0.0181,0.731725 0.49307,-0.04267 0.98998,-0.0071 1.4505,0.139067 -0.0221,-0.245416 -0.044,-0.476809 -0.0585,-0.68524 l -0.003,-0.05006 -0.0114,-0.04945 c -0.0225,-0.100964 -0.0454,-0.202311 -0.0689,-0.303846 -0.005,-0.234033 -0.0114,-0.466504 -0.0195,-0.696515 -0.059,-1.603207 -0.0505,-3.097983 0.52621,-4.45979 0.71128,-1.512177 2.2493,-2.798852 3.86185,-2.876857 0.49542,0.204302 0.76737,0.628356 0.93872,1.322605 0.17254,0.699132 0.18626,1.558951 0.20626,2.291517 -0.51609,1.572442 -1.51511,3.067859 -2.71451,4.282546 l -0.0114,0.01138 -0.0114,0.01183 c -0.5013,0.559837 -1.04958,1.082759 -1.62313,1.584913 l 0.0303,0.0098 c 0.34824,0.371275 0.6723,0.783297 0.93794,1.227257 1.40405,-1.262724 2.85736,-2.390455 4.56761,-3.005435 0.89259,-0.212477 1.82313,-0.716487 2.58677,-0.903631 0.38874,-0.09527 0.70084,-0.101602 0.89541,-0.03818 0.19457,0.06342 0.33851,0.159474 0.50071,0.545779 l 0.0217,0.05084 0.029,0.04629 c 0.42024,0.667934 0.33492,1.163256 10e-4,1.65395 -0.33337,0.490694 -0.99671,0.906359 -1.6967,1.024297 l -0.0948,0.01642 -0.0866,0.04174 c -1.63421,0.795988 -3.58095,0.835504 -5.59435,1.240511 l -0.002,8.1e-4 h -0.002 c -0.2437,0.05076 -0.4833,0.103788 -0.7198,0.156079 0.17256,0.45593 0.27203,0.936654 0.26715,1.435559 -1e-4,8.11e-4 -3e-4,0.0016 -4e-4,0.0024 0.21188,-0.01983 0.42564,-0.04758 0.6415,-0.08605 1.33312,-0.0032 2.76769,0.401333 4.28702,0.665457 1.36959,0.394303 2.83004,0.90454 3.58756,1.842075 l 0.0358,0.04491 0.0435,0.03818 c 0.39787,0.348643 0.56368,1.030135 0.42437,1.631399 -0.13932,0.601263 -0.48047,1.018061 -1.07852,1.073553 l -0.0642,0.006 -0.0627,0.01879 c -1.20137,0.353223 -2.50145,-0.428224 -4.02401,-0.874749 -1.61268,-0.668939 -3.05823,-1.670737 -4.41772,-2.813951 -0.3076,0.42136 -0.71091,0.770531 -1.1784,0.999968 0.21429,0.262558 0.42295,0.527963 0.62292,0.797203 l 8.1e-4,0.0014 8.1e-4,8.11e-4 c 0.9423,1.255959 2.02414,2.285349 2.72281,3.45191 0.1967,0.83108 0.59911,1.577807 0.81078,2.221291 0.11416,0.347253 0.16894,0.651784 0.14889,0.899475 -0.0199,0.246068 -0.0929,0.446377 -0.3154,0.691569 -0.46414,0.491776 -0.91991,0.504023 -1.5023,0.278131 -0.58133,-0.225478 -1.18376,-0.77768 -1.48213,-1.312122 -0.84019,-1.788912 -1.65648,-3.583972 -2.02101,-5.449668 l -0.003,-0.02017 -0.005,-0.01939 c -0.0928,-0.356825 -0.18255,-0.716291 -0.26339,-1.075334 9e-5,-7.08e-4 2.9e-4,-0.0014 3.9e-4,-0.0019 -0.48931,0.08473 -0.97636,0.0027 -1.42241,-0.199202 0.0149,0.07117 0.0306,0.141611 0.0463,0.212259 -0.0332,0.141313 -0.0726,0.279002 -0.12027,0.412251 l -0.0102,0.02908 -0.008,0.02928 c -0.31302,1.216869 -0.87912,2.396671 -1.24245,3.774748 -0.29979,0.840364 -0.78402,1.671506 -1.319,2.312288 0.002,0.0055 0.11803,0.318536 0.27666,0.944577 0.0552,0.217772 0.0929,0.402829 0.12374,0.568131 0.12338,-0.112997 0.23763,-0.224612 0.34171,-0.331145 l 0.005,-0.0051 0.005,-0.0053 c 0.7716,-0.825097 1.43252,-1.909937 1.83848,-3.061616 l 0.009,-0.02612 0.008,-0.0269 c 0.18181,-0.696759 0.44436,-1.383573 0.70299,-2.100424 0.46069,1.641965 1.17122,3.173772 1.86122,4.642376 l 0.0102,0.02017 0.0102,0.01958 c 0.46092,0.833005 1.23935,1.555268 2.17565,1.918431 0.93631,0.363163 2.13453,0.275168 2.96723,-0.611651 l 0.003,-0.003 0.002,-0.0038 c 0.40897,-0.447549 0.62236,-0.98094 0.66365,-1.491542 0.0413,-0.510604 -0.0662,-0.987674 -0.2108,-1.427252 -0.28918,-0.879156 -0.72125,-1.671898 -0.82719,-2.23771 l -0.0225,-0.116716 -0.0597,-0.101681 c -0.25548,-0.431498 -0.54089,-0.830981 -0.83846,-1.210641 0.4526,0.242588 0.91871,0.46536 1.39968,0.664863 l 0.0359,0.01503 0.0381,0.01104 c 1.23712,0.351146 2.87964,1.423323 4.77428,0.904025 1.18328,-0.141099 1.96688,-1.08668 2.19898,-2.088356 0.23297,-1.00546 0.0102,-2.155389 -0.81631,-2.906135 -1.11408,-1.335369 -2.84106,-1.849041 -4.22433,-2.246611 l -0.0358,-0.0097 -0.0367,-0.0067 c -0.26503,-0.04535 -0.53302,-0.09778 -0.80385,-0.15311 0.71722,-0.156432 1.43679,-0.372174 2.14281,-0.705614 1.0101,-0.193672 1.92737,-0.750861 2.48769,-1.575614 0.56629,-0.833528 0.67926,-2.006892 0.0525,-3.056475 -0.27765,-0.633497 -0.75354,-1.089628 -1.29843,-1.267217 -0.27808,-0.09064 -0.55567,-0.119407 -0.82877,-0.109992 -0.2731,0.0094 -0.54131,0.05715 -0.79969,0.120465 -1.03354,0.253287 -2.04434,0.781093 -2.61287,0.909761 l -0.0389,0.0091 -0.0373,0.01344 c -0.28971,0.103071 -0.57135,0.217307 -0.84578,0.341432 0.59858,-0.888659 1.08965,-1.854903 1.41175,-2.876856 l 0.0336,-0.107612 -0.003,-0.112155 c -0.0207,-0.732102 -0.0195,-1.743634 -0.25708,-2.706535 -0.23764,-0.962903 -0.79148,-1.970521 -1.90136,-2.334047 l -0.10323,-0.03443 -0.10835,7.9e-4 c -2.34305,0.01208 -4.29329,1.725795 -5.20933,3.687315 l -0.005,0.01047 -0.005,0.01047 c -0.23578,0.553963 -0.39117,1.112978 -0.49199,1.671952 -0.68014,-1.672489 -1.61855,-3.249797 -3.00204,-4.517553 -0.53755,-0.67551 -1.31538,-1.071978 -2.11829,-1.165539 -0.13636,-0.01589 -0.2734,-0.02331 -0.40993,-0.02196 z"
       id="path1165-6-9" />
    <path
       style="color:#000000;fill:#ffcc00;fill-opacity:1;stroke:#ffff00;stroke-width:0;stroke-miterlimit:4;stroke-dasharray:none"
       d="m 110.84483,81.754035 c -1.06914,-0.723687 -2.54903,-0.561543 -3.68756,-0.111005 -1.77343,1.242164 -1.74938,4.217167 -0.0642,5.536499 0.80511,1.009035 2.12673,1.529869 3.33177,0.876724 1.26104,-0.319206 2.19637,-1.494642 2.36276,-2.755584 0.0131,-1.338051 -0.72371,-2.546149 -1.61116,-3.492327 0,0 -0.10118,-0.03324 -0.10118,-0.03324 0,0 -0.23041,-0.02107 -0.23041,-0.02107 z"
       id="path1218" />
    <path
       style="color:#000000;fill:#000000;stroke:#ffff00;stroke-width:0;stroke-miterlimit:4;stroke-dasharray:none"
       d="m 109.03793,80.579492 c -0.75016,0.0061 -1.4911,0.188692 -2.1271,0.44037 l -0.0732,0.02916 -0.0642,0.0456 c -2.15568,1.509913 -2.15067,4.886023 -0.17114,6.533015 0.95126,1.164987 2.59925,1.804216 4.08753,1.034009 1.50559,-0.431574 2.56443,-1.778723 2.76163,-3.273239 l 0.005,-0.04038 7.7e-4,-0.04112 c 0.0156,-1.587968 -0.83674,-2.937843 -1.79228,-3.956595 l -0.1174,-0.124859 -0.33558,-0.110652 -0.22123,-0.02018 c -0.6156,-0.352296 -1.28387,-0.52059 -1.95296,-0.515134 z m -0.0216,1.357742 c 0.5417,-0.0067 1.05638,0.10315 1.45295,0.371585 l 0.14275,0.09646 0.17191,0.01571 0.0157,0.0015 c 0.7429,0.833677 1.30768,1.814933 1.31319,2.829129 -0.14596,0.977382 -0.90649,1.916142 -1.85207,2.155493 l -0.0814,0.02018 -0.0732,0.03963 c -0.89359,0.484344 -1.83728,0.112485 -2.48959,-0.70504 l -0.0486,-0.06131 -0.062,-0.0486 c -1.28399,-1.005238 -1.30876,-3.423505 -0.009,-4.405189 0.48011,-0.178819 1.00867,-0.303249 1.51872,-0.309529 z"
       id="path1220" />
  </g>
</svg>
